/* XPM */
static char *_190ad2fbe9c4dfdb0991b7cf76b4377enA8FGKv0ZWySraf[] = {
/* columns rows colors chars-per-pixel */
"64 64 3 1 ",
"  c #818181",
". c #C0C0C0",
"X c gray83",
/* pixels */
"                                                                ",
"                                                                ",
"XXXXXXXXXXXXXXXXXXXXXX      XXXXXXXXXXXXXXXXXXXXXXXXXXXXXXXXXXXX",
"XXXXXXXXXXXXXXXXXXXXXX      XXXXXXXXXXXXXXXXXXXXXXXXXXXXXXXXXXXX",
"......................XX  ....................XX................",
"......................XX  ....................XX................",
"................XXXX..XX  ......................................",
"................XXXX..XX  ......................................",
"........................  ......................................",
"........................  ......................................",
"....XX................XX  ..........................XX..........",
"....XX................XX  ..........................XX..........",
"........................  ..........................XX..........",
"........................  ..........................XX..........",
"........................  ......................................",
"........................  ......................................",
"........................  ......................................",
"........................  ......................................",
"......................      ....................................",
"......................      ....................................",
"                                                                ",
"                                                                ",
"XXXXXXXXXXXXXXXXXXXXXXXXXXXXXXXXXXXXXXXXXX      XXXXXXXXXXXXXXXX",
"XXXXXXXXXXXXXXXXXXXXXXXXXXXXXXXXXXXXXXXXXX      XXXXXXXXXXXXXXXX",
"..........XX..............................XX  ..................",
"..........XX..............................XX  ..................",
"..........................................XX  ..................",
"..........................................XX  ..................",
"..........................................XX  ............XX....",
"..........................................XX  ............XX....",
"..........................................XX  ..................",
"..........................................XX  ..................",
"..........................................XX  ..................",
"..........................................XX  ..................",
"..........................................XX  ..................",
"..........................................XX  ..................",
"..........................................XX  ....XX............",
"..........................................XX  ....XX............",
"..XX......................................XX  ..................",
"..XX......................................XX  ..................",
"..........................................      ................",
"..........................................      ................",
"                                                                ",
"                                                                ",
"XXXXXXXXXX      XXXXXXXXXXXXXXXXXXXXXXXXXXXXXXXXXXXXXXXXXXXXXXXX",
"XXXXXXXXXX      XXXXXXXXXXXXXXXXXXXXXXXXXXXXXXXXXXXXXXXXXXXXXXXX",
"..........XX  ............................XX....................",
"..........XX  ............................XX....................",
"..........XX  ..................................................",
"..........XX  ..................................................",
"............  ..................................................",
"............  ..................................................",
"..XX........  ..........................................XXXX....",
"..XX........  ..........................................XXXX....",
"............  ..................................................",
"............  ..................................................",
"............  ..................................................",
"............  ..................................................",
"............  ..................................................",
"............  ..................................................",
"..........      ................................................",
"..........      ................................................",
"                                                                ",
"                                                                "
};
