/* XPM */
static char *e72f43f7e6a44675a0c8507c929747acRNDtK0kekyQup0Ul[] = {
/* columns rows colors chars-per-pixel */
"64 64 13 1 ",
"  c black",
". c #510513",
"X c #6D071A",
"o c #B29615",
"O c #D2AF11",
"+ c #EAC20E",
"@ c #FFD931",
"# c #DBC253",
"$ c #5B708B",
"% c #818181",
"& c #DBCDA7",
"* c #C0C0C0",
"= c gray83",
/* pixels */
"%%%%%%%%%                                              %%%%%%%%%",
"%%%%%%%%% $$#$$$$$$$$$$$$&&&$$$$$$$$###$$$$$$$$$$$$&$$ %%%%%%%%%",
"========= $$#$$$$$$$$$$$&$$$&&$$$$##$$$#$$$$$$$$$$$&$$ =========",
"========= $$#$$$$$$$$$$&$$$$$$&$$#$$$$$$#$$$$$$$$$$&$$ =========",
"********* $$#$$$$$$$$$&$$$$$$$$&#$$$$$$$$#$$$$$$$$$&$$ *********",
"********* $$#$$$$$$$$$&$$$$$$$$&#$$$$$$$$#$$$$$$$$$&$$ *********",
"********* $$#$$$$$$$$&$$$$$&$$$&#$$$#$$$$$#$$$$$$$$&$$ *********",
"********* $$#$$$$$$$$&$$$$&$$$&$$#$$$#$$$$#$$$$$$$$&$$ *********",
"********* $$#$$$$$$$&$$$$$&$$&$$$$#$$#$$$$$#$$$$$$$&$$ *********",
"********* $$#$$$$$$$&$$$$$$&&$$$$$$##$$$$$$#$$$$$$$&$$ *********",
"****==*** $$#$$$$$$$$&$$$$$$$$$$$$$$$$$$$$#$$$$$$$$&$$ *********",
"****==*** $$#$$$$$$$$&$$$$$$$$$$$$$$$$$$$$#$$$$$$$$&$$ *********",
"********* $$#$$$$$$$$$&$$$$$$$$$$$$$$$$$$#$$$$$$$$$&$$ *********",
"********* $$#$$$$$$$$$&$$$$$$$$$$$$$$$$$$#$$$$$$$$$&$$ *********",
"********* $$#$$$$$$$$$$&$$$$$$$$$$$$$$$$#$$$$$$$$$$&$$ *********",
"********* $$#$$$$$$$$$$$&$$$$$$$$$$$$$$#$$$$$$$$$$$&$$ *********",
"********* $$#$$$$$$$$$$$$&$$$$$$$$$$$$#$$$$$$$$$$$$&$$ *********",
"********* $$#$$$$$$$$$$$$$&$$$$$$$$$$#$$$$$$$$$$$$$&$$ *********",
"********* $$#$$$$$$$$$$$$$$&$$$$$$$$#$$$$$$$$$$$$$$&$$ *********",
"********* $$#$$$$$$$$$$$$$$$&$$$$$$#$$$$$$$$$$$$$$$&$$ *********",
"%%%%%%%%% $$#$$$$$$$$$$$$$$$$&$$$$#$$$$$$$$$$$$$$$$&$$ %%%%%%%%%",
"%%%%%%%%% $$#$$$$$$$$$$$$$$$$$&$$#$$$$$$$$$$$$$$$$$&$$ %%%%%%%%%",
"========= $$#$$$$$$$$$$$$$$$$$$&#$$$$$$$$$$$$$$$$$$&$$ =========",
"========= $$#$$$$$$$$$$$$$$$$$$#&$$$$$$$$$$$$$$$$$$&$$ =========",
"********* $$#$$$$$$$$$$$$$$$$$#$$&$$$$$$$$$$$$$$$$$&$$ *********",
"********* $$#$$$$$$$$$$$$$$$$#$$$$&$$$$$$$$$$$$$$$$&$$ *********",
"********* $$#$$$$$$$$$$$$$$$#$$$$$$&$$$$$$$$$$$$$$$&$$ *********",
"********* $$#$$$$$$$$$$$$$$#$$$$$$$$&$$$$$$$$$$$$$$&$$ *********",
"********* $$#$$$$$$$$$$$$$#$$$$$$$$$$&$$$$$$$$$$$$$&$$ ***==****",
"********* $$#$$$$$$$$$$$$#$$$$$$$$$$$$&$$$$$$$$$$$$&$$ ***==****",
"********* $$#$$$$$$$$$$$#$$$$$$$$$$$$$$&$$$$$$$$$$$&$$ *********",
"********* $$#$$$$$$$$$$#$$$$$$$$$$$$$$$$&$$$$$$$$$$&$$ *********",
"********* $$#$$$$$$$$$#$$$$$$$$$$$$$$$$$$&$$$$$$$$$&$$ *********",
"********* $$#$$$$$$$$#$$$$$$$$$$$$$$$$$$$$&$$$$$$$$&$$ *********",
"********* $$#$$$$$$$#$$$$$$$$$$$$$$$$$$$$$$&$$$$$$$&$$ *********",
"********* $$#$$$$$$$#$$$$$$$$$$$$$$$$$$$$$$&$$$$$$$&$$ *********",
"********* $$#$$$$$$#$$$$$$$$$$$$$$$$$$$$$$$$&$$$$$$&$$ *********",
"********* $$#$$$$$$#$$$$$$$$$$$$$$$$$$$$$$$$&$$$$$$&$$ *********",
"**==***** $$#$$$$$#$$$$$$$$$$$$$$$$$$$$$$$$$$&$$$$$&$$ *********",
"**==***** $$#$$$$$#$$$$$$$$$$$$$$$$$$$$$$$$$$&$$$$$&$$ *********",
"********* $$#$$$$#$$$$$$$$$$$$$  $$$$$$$$$$$$$&$$$$&$$ *********",
"********* $$#$$$$#$$$$$$$$$$$$    $$$$$$$$$$$$&$$$$&$$ *********",
"%%%%%%%%% $$#$$$$#$$$$$$$$$$$  XX  $$$$$$$$$$$&$$$$&$$ %%%%%%%%%",
"%%%%%%%%% $$#$$$#$$$$$$$$$$$  XXXX  $$$$$$$$$$$&$$$&$$ %%%%%%%%%",
"========= $$#$$$#$$$$$$$$$$  XXXXXX  $$$$$$$$$$&$$$&$$ =========",
"========= $$#$$$#$$$$$$$$$  XXXXXXXX  $$$$$$$$$&$$$&$$ =========",
"********* $$#$$$#$$$$$$$$  XXXXXXXXXX  $$$$$$$$&$$$&$$ *********",
"********* $$#$$$#$$$$$$$  XXXXXXXXXXXX  $$$$$$$&$$$&$$ *********",
"********* $$#$$$#$$$$$$  XXXXXXXXXXXXXX  $$$$$$&$$$&$$ *********",
"********* $$#$$$#$$$$$  XXXXXXX  XXXXXXX  $$$$$&$$$&$$ *********",
"********* $$#$$$#$$$$  XXXX XX @+ XX XXX.  $$$$&$$$&$$ *********",
"********* $$#$$$#$$$   XXX @ X @+ X o XX.   $$$&$$$&$$ *********",
"**==***** $$#$$$#$$  * XXX @+ @++O @+ XX. *  $$&$$$&$$ *====****",
"**==***** $$#$$$#$  ** XXX @+++=*++@+ XX. **  $&$$$&$$ *====****",
"********* $$#$$$#  *** XXX @+++*=O+++ XX. ***  &$$$&$$ *********",
"********* $$#$$$  **** XXX ++O@+O+++o XX. ****  $$$&$$ *********",
"********* $$#$$  ***** XXXX          XX.. *****  $$&$$ *********",
"********* $$#$  ****** .................. ******  $&$$ *********",
"********* $$#  *******                    *******  &$$ *********",
"********* $$  ************************************  $$ *********",
"********* $  %%%***********************************  $ *********",
"*********   %%%%************************************   *********",
"%%%%%%%%%  %%%%%%%%%%%%%%%%%%%%%%%%%%%%%%%%%%%%%%%%%%  %%%%%%%%%",
"%%%%%%%%% %%%%%%%%%%%%%%%%%%%%%%%%%%%%%%%%%%%%%%%%%%%% %%%%%%%%%"
};
