/* XPM */
static char *_ef4a9cd66694687c0cf20e214b86611HWdKaiOcPSBAKXkH[] = {
/* columns rows colors chars-per-pixel */
"64 64 12 1 ",
"  c black",
". c #656565",
"X c #CB0102",
"o c #FE0000",
"O c #FF9201",
"+ c #FEFE00",
"@ c #818181",
"# c #8D8D8D",
"$ c #FFFE88",
"% c #C0C0C0",
"& c gray83",
"* c #FEFDFF",
/* pixels */
"@@@@@@@@@@@@@@@@@@@@@@@@@@@@@@@@@@@@@@@@@@@@@@@@@@@@@@@@@@@@@@@@",
"@@@@@@@@@@@@@@@@@@@@@@@@@@@@@@@@@@@@@@@@@@@@@@@@@@@@@@@@@@@@@@@@",
"&&&&&&&&&&&&&&&&&&&&&&@@@@@@&&&&&&&&&&&&&&&&&&&&&&&&&&&&&&&&&&&&",
"&&&&&&&&&&&&&&&&&&&&&&@@@@@@&&&&&&&&&&&&&&&&&&&&&&&&&&&&&&&&&&&&",
"%%%%%%%%%%%%%%%%%%%%%%&&@@%%%%%%%%%%%%%%%%%%%%&&%%%%%%%%%%%%%%%%",
"%%%%%%%%%%%%%%%%%%%%%%&&@@%%%%%%%%%%%%%%%%%%%%&&%%%%%%%%%%%%%%%%",
"%%%%%%%%%%%%%%%%&&&&%%&&@@%%%%%%% %%%%%%%%%%%%%%%%%%%%%%%%%%%%%%",
"%%%%%%%%%%%%%%%%&&&&%%&&@@%%%%%%   %%%%%%%%%%%%%%%%%%%%%%%%%%%%%",
"%%%%%%%%%%%%%%%%%%%%%%%%@@%%%%%% o %%%%%%%%%%%%%%%%%%%%%%%%%%%%%",
"%%%%%%%%%%%%%%%%%%%%%%%%@@%%%%%% oO %%%%%%%%%%%%%%%%%%%%%%%%%%%%",
"%%%%&&%%%%%%%%%%%%%%%%&&@@%%%%%% o+ %%%%%%%%%%%%%%%%&&%%%%%%%%%%",
"%%%%&&%%%%%%%%%%%%%%%%&&@@%%%%%% o+o %%%%%%%%%%%%%%%&&%%%%%%%%%%",
"%%%%%%%%%%%%%%%%%%%%%%%%@@%%%%% oO+oo %%%%%%%%%%%%%%&&%%%%%%%%%%",
"%%%%%%%%%%%%%%%%%%%%%%%%@@%%%% oO++Ooo %%%%%%%%%%%%%&&%%%%%%%%%%",
"%%%%%%%%%%%%%%%%%%%%%%%%@@%%%% o++++Oo %%%%%%%%%%%%%%%%%%%%%%%%%",
"%%%%%%%%%%%%%%%%%%%%%%%%@@%%   o+$O++Oo %%%%%%%%%%%%%%%%%%%%%%%%",
"%%%%%%%%%%%%%%%%%%%%%%%%@@% ooX++$++++oo %%%%%%%%%%%%%%%%%%%%%%%",
"%%%%%%%%%%%%%%%%%%%%%%%%@@ oOo++$$$+++oo %%%%%%%%%%%%%%%%%%%%%%%",
"%%%%%%%%%%%%%%%%%%%%%%@@@@ o+O+$$*$$O+oX %%%%%%%%%%%%%%%%%%%%%%%",
"%%%%%%%%%%%%%%%%%%%%%%@@@@@ O+O+$$$++Oo %%%%%%%%%%%%%%%%%%%%%%%%",
"@@@@@@@@@@@@@@@@@@@@@@@@@@ o+O+++$+++Oo @@@@@@@@@@@@@@@@@@@@@@@@",
"@@@@@@@@@@@@@@@@@@@@@@@@@@ ooOO++$+OoXo @@@@@@@@@@@@@@@@@@@@@@@@",
"&&&&&&&&&&&&&&&&&&&&&&&&&& OooO+++OoXoo &&@@@@@@&&&&&&&&&&&&&&&&",
"&&&&&&&&&&&&&&&&&&&&&&&&&& oooO++OooXoX &&@@@@@@&&&&&&&&&&&&&&&&",
"%%%%%%%%%%&&%%%%%%%%%%%%%%% ooXOoooooX  %%&&@@%%%%%%%%%%%%%%%%%%",
"%%%%%%%%%%&&%%%%%%%%%%%%%%%    oooX    %%%&&@@%%%%%%%%%%%%%%%%%%",
"%%%%%%%%%%%%%%%%%%%%%%%%%%%  .  oX  .  %%%&&@@%%%%%%%%%%%%%%%%%%",
"%%%%%%%%%%%%%%%%%%%%%%%%%%% #..    ..  %%%&&@@%%%%%%%%%%%%%%%%%%",
"%%%%%%%%%%%%%%%%%%%%%%%%%%% ##......#  %%%&&@@%%%%%%%%%%%%&&%%%%",
"%%%%%%%%%%%%%%%%%%%%%%%%%%% ####..# #  %%%&&@@%%%%%%%%%%%%&&%%%%",
"%%%%%%%%%%%%%%%%%%%%%%%%%%%% ##### #  %%%%&&@@%%%%%%%%%%%%%%%%%%",
"%%%%%%%%%%%%%%%%%%%%%%%%%%%%% ### #  %%%%%&&@@%%%%%%%%%%%%%%%%%%",
"%%%%%%%%%%%%%%%%%%%%%%%%%%%%% ####   %%%%%&&@@%%%%%%%%%%%%%%%%%%",
"%%%%%%%%%%%%%%%%%%%%%%%%%%%%%  ## #  %%%%%&&@@%%%%%%%%%%%%%%%%%%",
"%%%%%%%%%%%%%%%%%%%%%%%%%%%%%% ###  %%%%%%&&@@%%%%%%%%%%%%%%%%%%",
"%%%%%%%%%%%%%%%%%%%%%%%%%%%%%% ##   %%%%%%&&@@%%%%%%%%%%%%%%%%%%",
"%%%%%%%%%%%%%%%%%%%%%%%%%%%%%% # .  %%%%%%&&@@%%%%&&%%%%%%%%%%%%",
"%%%%%%%%%%%%%%%%%%%%%%%%%%%%%% .#.  %%%%%%&&@@%%%%&&%%%%%%%%%%%%",
"%%&&%%%%%%%%%%%%%%%%%%%%%%%%%%%  . %%%%%%%&&@@%%%%%%%%%%%%%%%%%%",
"%%&&%%%%%%%%%%%%%%%%%%%%%%%%%%% .  %%%%%%%&&@@%%%%%%%%%%%%%%%%%%",
"%%%%%%%%%%%%%%%%%%%%%%%%%%%%%%% .  %%%%%%%@@@@@@%%%%%%%%%%%%%%%%",
"%%%%%%%%%%%%%%%%%%%%%%%%%%%%%%% .  %%%%%%%@@@@@@%%%%%%%%%%%%%%%%",
"@@@@@@@@@@@@@@@@@@@@@@@@@@@@@@@ .  @@@@@@@@@@@@@@@@@@@@@@@@@@@@@",
"@@@@@@@@@@@@@@@@@@@@@@@@@@@@@@@ .  @@@@@@@@@@@@@@@@@@@@@@@@@@@@@",
"&&&&&&&&&&@@@@@@&&&&&&&&&&&&&&&    &&&&&&&&&&&&&&&&&&&&&&&&&&&&&",
"&&&&&&&&&&@@@@@@&&&&&&&&&&&&&&&&  &&&&&&&&&&&&&&&&&&&&&&&&&&&&&&",
"%%%%%%%%%%&&@@%%%%%%%%%%%%%%%%%%  %%%%%%%%&&%%%%%%%%%%%%%%%%%%%%",
"%%%%%%%%%%&&@@%%%%%%%%%%%%%%%%%%  %%%%%%%%&&%%%%%%%%%%%%%%%%%%%%",
"%%%%%%%%%%&&@@%%%%%%%%%%%%%%%%%%%%%%%%%%%%%%%%%%%%%%%%%%%%%%%%%%",
"%%%%%%%%%%&&@@%%%%%%%%%%%%%%%%%%%%%%%%%%%%%%%%%%%%%%%%%%%%%%%%%%",
"%%%%%%%%%%%%@@%%%%%%%%%%%%%%%%%%%%%%%%%%%%%%%%%%%%%%%%%%%%%%%%%%",
"%%%%%%%%%%%%@@%%%%%%%%%%%%%%%%%%%%%%%%%%%%%%%%%%%%%%%%%%%%%%%%%%",
"%%&&%%%%%%%%@@%%%%%%%%%%%%%%%%%%%%%%%%%%%%%%%%%%%%%%%%%%&&&&%%%%",
"%%&&%%%%%%%%@@%%%%%%%%%%%%%%%%%%%%%%%%%%%%%%%%%%%%%%%%%%&&&&%%%%",
"%%%%%%%%%%%%@@%%%%%%%%%%%%%%%%%%%%%%%%%%%%%%%%%%%%%%%%%%%%%%%%%%",
"%%%%%%%%%%%%@@%%%%%%%%%%%%%%%%%%%%%%%%%%%%%%%%%%%%%%%%%%%%%%%%%%",
"%%%%%%%%%%%%@@%%%%%%%%%%%%%%%%%%%%%%%%%%%%%%%%%%%%%%%%%%%%%%%%%%",
"%%%%%%%%%%%%@@%%%%%%%%%%%%%%%%%%%%%%%%%%%%%%%%%%%%%%%%%%%%%%%%%%",
"%%%%%%%%%%%%@@%%%%%%%%%%%%%%%%%%%%%%%%%%%%%%%%%%%%%%%%%%%%%%%%%%",
"%%%%%%%%%%%%@@%%%%%%%%%%%%%%%%%%%%%%%%%%%%%%%%%%%%%%%%%%%%%%%%%%",
"%%%%%%%%%%@@@@@@%%%%%%%%%%%%%%%%%%%%%%%%%%%%%%%%%%%%%%%%%%%%%%%%",
"%%%%%%%%%%@@@@@@%%%%%%%%%%%%%%%%%%%%%%%%%%%%%%%%%%%%%%%%%%%%%%%%",
"@@@@@@@@@@@@@@@@@@@@@@@@@@@@@@@@@@@@@@@@@@@@@@@@@@@@@@@@@@@@@@@@",
"@@@@@@@@@@@@@@@@@@@@@@@@@@@@@@@@@@@@@@@@@@@@@@@@@@@@@@@@@@@@@@@@"
};
