/* XPM */
static char *d25d943d30d048e6a5a7b0b31bf5cbe5IrTCtiehRQbzYuL7[] = {
/* columns rows colors chars-per-pixel */
"64 64 2 1 ",
"  c black",
". c white",
/* pixels */
"                                                                ",
"                                                                ",
"                                                                ",
"                                                                ",
"                                                                ",
"                                                                ",
"                                                                ",
"                                                                ",
"                                                                ",
"                                                                ",
"             ....                                               ",
"             .   ...............................                ",
"             .                                                  ",
"             .                                                  ",
"             .                                                  ",
"             .                                                  ",
"             .                                                  ",
"             .                                                  ",
"             .                                                  ",
"             .                                                  ",
"             .                                                  ",
"             .                                                  ",
"             .                                                  ",
"             .                                                  ",
"             .                                                  ",
"             .                                                  ",
"             .                                                  ",
"             .                                                  ",
"             ...............      ...                           ",
"             .              ......                              ",
"             .                                                  ",
"             .                                                  ",
"             .                                                  ",
"             .                                                  ",
"             .                                                  ",
"             .                                                  ",
"             .                                                  ",
"             .                                                  ",
"             .                                                  ",
"             .                                                  ",
"             .                                                  ",
"             .                                                  ",
"             .                                                  ",
"             .                                                  ",
"             .                                                  ",
"             .                                                  ",
"             .                                                  ",
"             .                 ..................               ",
"             ..................                                 ",
"                                                                ",
"                                                                ",
"                                                                ",
"                                                                ",
"                                                                ",
"                                                                ",
"                                                                ",
"                                                                ",
"                                                                ",
"                                                                ",
"                                                                ",
"                                                                ",
"                                                                ",
"                                                                ",
"                                                                "
};
