/* XPM */
static char *_d5622abf2fa4734e3c6a70876dbf2faEOfneplXg7PAH8XH[] = {
/* columns rows colors chars-per-pixel */
"64 64 2 1 ",
"  c black",
". c white",
/* pixels */
"                                                                ",
"                                                                ",
"                                                                ",
"                                                                ",
"                                                                ",
"                                                                ",
"                                                                ",
"                                                                ",
"                                                                ",
"                                                                ",
"                                                                ",
"             .                          .                       ",
"             .                          ..                      ",
"             .                           .                      ",
"             .                           .                      ",
"             ..                          .                      ",
"             ..                          .                      ",
"             . .                         .                      ",
"             . .                         .                      ",
"             .  .                        .                      ",
"             .  .                        .                      ",
"             .   .                       .                      ",
"             .   .                       .                      ",
"             .    .                       .                     ",
"             .    .                       .                     ",
"             .     .                      .                     ",
"            .      .                      .                     ",
"            .       .                      .                    ",
"            .        .                     .                    ",
"            .         .                    .                    ",
"            .          .                   .                    ",
"            .          .                   .                    ",
"            .           .                  .                    ",
"            .            .                 .                    ",
"            .             .                .                    ",
"            .              .               .                    ",
"            .               .              .                    ",
"            .                .             .                    ",
"            .                 .            .                    ",
"             .                .            .                    ",
"             .                 .           .                    ",
"             .                  .          .                    ",
"             .                   .        .                     ",
"             .                    .       .                     ",
"             .                    .       .                     ",
"             .                     .      .                     ",
"             .                      .    .                      ",
"             .                      .    .                      ",
"             .                       .   .                      ",
"             .                        .  .                      ",
"             .                         . .                      ",
"             .                          ..                      ",
"             .                                                  ",
"             .                                                  ",
"             .                                                  ",
"             .                                                  ",
"                                                                ",
"                                                                ",
"                                                                ",
"                                                                ",
"                                                                ",
"                                                                ",
"                                                                ",
"                                                                "
};
