/* XPM */
static char * Catto0_xpm[] = {
"64 64 11 1",
" 	c #097E09",
".	c #000000",
"+	c #065606",
"@	c #FFFFFF",
"#	c #16C0D9",
"$	c #D8D8D8",
"%	c #A999A2",
"&	c #C9B0BE",
"*	c #8B7A84",
"=	c #C9C1C1",
"-	c #A79E9E",
"                                                                ",
"                                                                ",
"                                                                ",
"                                                                ",
"                                                                ",
"                                                                ",
"                                                                ",
"                                                                ",
"                            .          .                        ",
"                             .        .+                        ",
"                         ...  .      .+ ...                     ",
"                            ....    ....+++                     ",
"                               .....+++                         ",
"                             ..@...@..                          ",
"                            .@#@$.$@#@.                         ",
"                            ....$$$....+                        ",
"                           .$$$$$$$$$$$.                        ",
"                           ..%&&.$.%&&..+                       ",
"                           ..*%&.$.*&%..+                       ",
"                           .$.*.$$$.*.$.+                       ",
"                            .$.$$$$$.$.++                       ",
"                            .$$$$$$$$$.+                        ",
"                             ..$$$$$..++                        ",
"                               .....++++                        ",
"                              .$$$$$.++..                       ",
"                            ..=$$$$$$....                       ",
"                            .-=$$=$$$$...                       ",
"                          ...-=$$=$$$$.+++                      ",
"                          ...-=$$=$$$$.+++                      ",
"                          ...-=$=$$$$$.++                       ",
"                            .-=$=$=$$$.++                       ",
"                            .-=$$$=$$$.++                       ",
"                            .-=$$=$$$$.++                       ",
"                            .-===$$$$$...                       ",
"                            .-==$$$$$$...                       ",
"                            .-==$=$$$$...                       ",
"                          ...-===$$$$$.++                       ",
"                          ...--====$$$.++                       ",
"                          .. .--===$$.+++                       ",
"                              ..--=..+++                        ",
"                                ...  +++                        ",
"                                .$.                             ",
"                                .$.++                           ",
"                               .$$.++                           ",
"                              .=$.+++                           ",
"                              .$$.++                            ",
"                              .=$$.  ...                        ",
"                               .$$$..$$$.                       ",
"                                ..=$$$$.                        ",
"                                  .....                         ",
"                                                                ",
"                                                                ",
"                                                                ",
"                                                                ",
"                                                                ",
"                                                                ",
"                                                                ",
"                                                                ",
"                                                                ",
"                                                                ",
"                                                                ",
"                                                                ",
"                                                                ",
"                                                                "};
