/* XPM */
static char *result[] = {
/* columns rows colors chars-per-pixel */
"64 64 5 1 ",
"  c black",
". c gray60",
"X c #C1C1C1",
"o c gray82",
"O c #E6E6E6",
/* pixels */
"OOOOOOOOOO......OOOOOOOOOOOOOO    OOOOOOOOOOOOOOOO....OOOOOOOOXX",
"OOOOOOOOOO......OOOOOOOOOOOOOO    OOOOOOOOOOOOOOOO....OOOOOOOOXX",
"OOoooooooooo..OOOOoooooooo            oooooooooooooo..OOOOooooXX",
"OOoooooooooo..OOOOoooooooo            oooooooooooooo..OOOOooooXX",
"OOoooooooooo..OOoooooo                    ooooooooXX..OOooooooXX",
"OOoooooooooo..OOoooooo                    ooooooooXX..OOooooooXX",
"OOooooooXXXX..OOoo                            ooooXX..OOooooooXX",
"OOooooooXXXX..OOoo                            ooooXX..OOooooooXX",
"OOooooXXXX....OO                                XXXX..OOooooooXX",
"OOooooXXXX....OO                                XXXX..OOooooooXX",
"OOXXXXXXXX..OOOO                                XXXX..ooooooooXX",
"OOXXXXXXXX..OOOO                                XXXX..ooooooooXX",
"OOXXXXXXXX..OO                                    XX..ooooooooXX",
"OOXXXXXXXX..OO                                    XX..ooooooooXX",
"OOXXXXXXXX..OO                                    XX..ooooooooXX",
"OOXXXXXXXX..OO                                    XX..ooooooooXX",
"OOXXXXXXXX..                                        ..ooooooXXXX",
"OOXXXXXXXX..                                        ..ooooooXXXX",
"OOXXXXXXXX..                                        ....XXXXXXXX",
"OOXXXXXXXX..                                        ....XXXXXXXX",
"..........                                            ..........",
"..........                                            ..........",
"..OOOOOOOO                                            OOOOOO....",
"..OOOOOOOO                                            OOOOOO....",
"OOOOoooo                                                OOoooo..",
"OOOOoooo                                                OOoooo..",
"OOoooooo                                                oooooo..",
"OOoooooo                                                oooooo..",
"OOoooooo                                                ooooXX..",
"OOoooooo                                                ooooXX..",
"OOXXoooo                                                XXXXXX..",
"OOXXoooo                                                XXXXXX..",
"OOXXXXXX                                                XXXXXX..",
"OOXXXXXX                                                XXXXXX..",
"OOXXXXXX                                                XXXXXX..",
"OOXXXXXX                                                XXXXXX..",
"........                                                ........",
"........                                                ........",
"OOOOOO..                                                OOOOOOXX",
"OOOOOO..                                                OOOOOOXX",
"OOooXX..                                                ooooooXX",
"OOooXX..                                                ooooooXX",
"OOXXXX..                                                ooXXXXXX",
"OOXXXX..                                                ooXXXXXX",
"OOXX....                                                XXXXXXXX",
"OOXX....                                                XXXXXXXX",
"........                                                ........",
"........                                                ........",
"..OOOOOO                                                OOOO....",
"..OOOOOO                                                OOOO....",
"OOoooooo                                                OOoooo..",
"OOoooooo                                                OOoooo..",
"OOoooooo                                                oooooo..",
"OOoooooo                                                oooooo..",
"OOoooooo                                                ooooXX..",
"OOoooooo                                                ooooXX..",
"OOoooooo                                                XXooXX..",
"OOoooooo                                                XXooXX..",
"OOooooXX                                                XXXXXX..",
"OOooooXX                                                XXXXXX..",
"..XXXXXX                                                XXXX....",
"..XXXXXX                                                XXXX....",
"..........                                            ..........",
"..........                                            .........."
};
