/* XPM */
static char *ee87ff485dda4b26f132a8e0cb5fc2c7li4n9LSWpGVkXpoo[] = {
/* columns rows colors chars-per-pixel */
"32 32 5 1 ",
"  c black",
". c gray60",
"X c #C1C1C1",
"o c gray82",
"O c #E6E6E6",
/* pixels */
"OOOOO...OOOOOOO  OOOOOOOO..OOOOX",
"Oooooo.OOoooo      ooooooo.OOooX",
"Oooooo.Oooo          ooooX.OoooX",
"OoooXX.Oo              ooX.OoooX",
"OooXX..O                XX.OoooX",
"OXXXX.OO                XX.ooooX",
"OXXXX.O                  X.ooooX",
"OXXXX.O                  X.ooooX",
"OXXXX.                    .oooXX",
"OXXXX.                    ..XXXX",
".....                      .....",
".OOOO                      OOO..",
"OOoo                        Ooo.",
"Oooo                        ooo.",
"Oooo                        ooX.",
"OXoo                        XXX.",
"OXXX                        XXX.",
"OXXX                        XXX.",
"....                        ....",
"OOO.                        OOOX",
"OoX.                        oooX",
"OXX.                        oXXX",
"OX..                        XXXX",
"....                        ....",
".OOO                        OO..",
"Oooo                        Ooo.",
"Oooo                        ooo.",
"Oooo                        ooX.",
"Oooo                        XoX.",
"OooX                        XXX.",
".XXX                        XX..",
".....                      ....."
};
