/* XPM */
static char *result[] = {
/* columns rows colors chars-per-pixel */
"64 64 8 1 ",
"  c black",
". c #37230D",
"X c #5A3A19",
"o c #7B5123",
"O c #9A9A9A",
"+ c gray76",
"@ c #D2D2D2",
"# c #E7E7E7",
/* pixels */
"##########OOOOOO##############    ################OOOO########++",
"##########OOOOOO##############    ################OOOO########++",
"##@@@@@@@@@@OO####@@@@@@@@    ..oo    @@@@@@@@@@@@@@OO####@@@@++",
"##@@@@@@@@@@OO####@@@@@@@@    ..oo    @@@@@@@@@@@@@@OO####@@@@++",
"##@@@@@@@@@@OO##@@@@@@    XXXX..oooo..    @@@@@@@@++OO##@@@@@@++",
"##@@@@@@@@@@OO##@@@@@@    XXXX..oooo..    @@@@@@@@++OO##@@@@@@++",
"##@@@@@@++++OO##@@    oo..XXXX..oooo..XXXX    @@@@++OO##@@@@@@++",
"##@@@@@@++++OO##@@    oo..XXXX..oooo..XXXX    @@@@++OO##@@@@@@++",
"##@@@@++++OOOO##  ..oooo..XXXX..oooo..XXXX..oo  ++++OO##@@@@@@++",
"##@@@@++++OOOO##  ..oooo..XXXX..oooo..XXXX..oo  ++++OO##@@@@@@++",
"##++++++++OO####  ..oooo..XXXX..oooo..XXXX..oo  ++++OO@@@@@@@@++",
"##++++++++OO####  ..oooo..XXXX..oooo..XXXX..oo  ++++OO@@@@@@@@++",
"##++++++++OO##  XX..oooo..XXXX..oooo..XXXX..oooo  ++OO@@@@@@@@++",
"##++++++++OO##  XX..oooo..XXXX..oooo..XXXX..oooo  ++OO@@@@@@@@++",
"##++++++++OO##  XX..oooo..XXXX..oooo..XXXX..oooo  ++OO@@@@@@@@++",
"##++++++++OO##  XX..oooo..XXXX..oooo..XXXX..oooo  ++OO@@@@@@@@++",
"##++++++++OO  XXXX..oooo..XXXX..oooo..XXXX..oooo..  OO@@@@@@++++",
"##++++++++OO  XXXX..oooo..XXXX..oooo..XXXX..oooo..  OO@@@@@@++++",
"##++++++++OO  XXXX..oooo..XXXX..oooo..XXXX..oooo..  OOOO++++++++",
"##++++++++OO  XXXX..oooo..XXXX..oooo..XXXX..oooo..  OOOO++++++++",
"OOOOOOOOOO  ..XXXX..oooo..XXXX..oooo..XXXX..oooo..XX  OOOOOOOOOO",
"OOOOOOOOOO  ..XXXX..oooo..XXXX..oooo..XXXX..oooo..XX  OOOOOOOOOO",
"OO########  ..XXXX..oooo..XXXX..oooo..XXXX..oooo..XX  ######OOOO",
"OO########  ..XXXX..oooo..XXXX..oooo..XXXX..oooo..XX  ######OOOO",
"####@@@@  oo..XXXX..oooo..XXXX..oooo..XXXX..oooo..XXXX  ##@@@@OO",
"####@@@@  oo..XXXX..oooo..XXXX..oooo..XXXX..oooo..XXXX  ##@@@@OO",
"##@@@@@@  oo..XXXX..oooo..XXXX..oooo..XXXX..oooo..XXXX  @@@@@@OO",
"##@@@@@@  oo..XXXX..oooo..XXXX..oooo..XXXX..oooo..XXXX  @@@@@@OO",
"##@@@@@@    ..XXXX..oooo..XXXX..oooo..XXXX..oooo..XXXX  @@@@++OO",
"##@@@@@@    ..XXXX..oooo..XXXX..oooo..XXXX..oooo..XXXX  @@@@++OO",
"##++@@@@      XXXX..oooo..XXXX..oooo..XXXX..oooo..XXXX  ++++++OO",
"##++@@@@      XXXX..oooo..XXXX..oooo..XXXX..oooo..XXXX  ++++++OO",
"##++++++    ..XXXX..oooo..XXXX..oooo..XXXX..oooo..XXXX  ++++++OO",
"##++++++    ..XXXX..oooo..XXXX..oooo..XXXX..oooo..XXXX  ++++++OO",
"##++++++  oo..XXXX..oooo..XXXX..oooo..XXXX..oooo..XXXX  ++++++OO",
"##++++++  oo..XXXX..oooo..XXXX..oooo..XXXX..oooo..XXXX  ++++++OO",
"OOOOOOOO  oo..XXXX..oooo..XXXX..oooo..XXXX..      XXXX  OOOOOOOO",
"OOOOOOOO  oo..XXXX..oooo..XXXX..oooo..XXXX..      XXXX  OOOOOOOO",
"######OO  oo..XXXX..oooo..XXXX..oooo..XXXX..oo  ..XXXX  ######++",
"######OO  oo..XXXX..oooo..XXXX..oooo..XXXX..oo  ..XXXX  ######++",
"##@@++OO  oo..XXXX..oooo..XXXX..oooo..XXXX..  oo  XXXX  @@@@@@++",
"##@@++OO  oo..XXXX..oooo..XXXX..oooo..XXXX..  oo  XXXX  @@@@@@++",
"##++++OO  oo..XXXX..oooo..XXXX..oooo..XXXX..  oo  XXXX  @@++++++",
"##++++OO  oo..XXXX..oooo..XXXX..oooo..XXXX..  oo  XXXX  @@++++++",
"##++OOOO  oo..XXXX..oooo..XXXX..oooo..XXXX..oo  ..XXXX  ++++++++",
"##++OOOO  oo..XXXX..oooo..XXXX..oooo..XXXX..oo  ..XXXX  ++++++++",
"OOOOOOOO    ..XXXX..oooo..XXXX..oooo..XXXX..oooo..XXXX  OOOOOOOO",
"OOOOOOOO    ..XXXX..oooo..XXXX..oooo..XXXX..oooo..XXXX  OOOOOOOO",
"OO######      XXXX..oooo..XXXX..oooo..XXXX..oooo..XXXX  ####OOOO",
"OO######      XXXX..oooo..XXXX..oooo..XXXX..oooo..XXXX  ####OOOO",
"##@@@@@@    ..XXXX..oooo..XXXX..oooo..XXXX..oooo..XXXX  ##@@@@OO",
"##@@@@@@    ..XXXX..oooo..XXXX..oooo..XXXX..oooo..XXXX  ##@@@@OO",
"##@@@@@@  oo..XXXX..oooo..XXXX..oooo..XXXX..oooo..XXXX  @@@@@@OO",
"##@@@@@@  oo..XXXX..oooo..XXXX..oooo..XXXX..oooo..XXXX  @@@@@@OO",
"##@@@@@@  oo..XXXX..oooo..XXXX..oooo..XXXX..oooo..XXXX  @@@@++OO",
"##@@@@@@  oo..XXXX..oooo..XXXX..oooo..XXXX..oooo..XXXX  @@@@++OO",
"##@@@@@@  oo..XXXX..oooo..XXXX..oooo..XXXX..oooo..XXXX  ++@@++OO",
"##@@@@@@  oo..XXXX..oooo..XXXX..oooo..XXXX..oooo..XXXX  ++@@++OO",
"##@@@@++  oo..XXXX..oooo..XXXX..oooo..XXXX..oooo..XXXX  ++++++OO",
"##@@@@++  oo..XXXX..oooo..XXXX..oooo..XXXX..oooo..XXXX  ++++++OO",
"OO++++++  oo..XXXX..oooo..XXXX..oooo..XXXX..oooo..XXXX  ++++OOOO",
"OO++++++  oo..XXXX..oooo..XXXX..oooo..XXXX..oooo..XXXX  ++++OOOO",
"OOOOOOOOOO                                            OOOOOOOOOO",
"OOOOOOOOOO                                            OOOOOOOOOO"
};
