/* XPM */
static char *_0b841f61aff4bb8f8ba61b5867251c7aXcYF71fbD4Nhl89[] = {
/* columns rows colors chars-per-pixel */
"32 32 8 1 ",
"  c black",
". c #3A2815",
"X c #5A3D1F",
"o c #7A5228",
"O c gray60",
"+ c #C1C1C1",
"@ c gray82",
"# c #E6E6E6",
/* pixels */
"#####OOO#######  ########OO####+",
"#@@@@@O##@@@@  .o  @@@@@@@O##@@+",
"#@@@@@O#@@@  XX.oo.  @@@@+O#@@@+",
"#@@@++O#@  o.XX.oo.XX  @@+O#@@@+",
"#@@++OO# .oo.XX.oo.XX.o ++O#@@@+",
"#++++O## .oo.XX.oo.XX.o ++O@@@@+",
"#++++O# X.oo.XX.oo.XX.oo +O@@@@+",
"#++++O# X.oo.XX.oo.XX.oo +O@@@@+",
"#++++O XX.oo.XX.oo.XX.oo. O@@@++",
"#++++O XX.oo.XX.oo.XX.oo. OO++++",
"OOOOO .XX.oo.XX.oo.XX.oo.X OOOOO",
"O#### .XX.oo.XX.oo.XX.oo.X ###OO",
"##@@ o.XX.oo.XX.oo.XX.oo.XX #@@O",
"#@@@ o.XX.oo.XX.oo.XX.oo.XX @@@O",
"#@@@  .XX.oo.XX.oo.XX.oo.XX @@+O",
"#+@@   XX.oo.XX.oo.XX.oo.XX +++O",
"#+++  .XX.oo.XX.oo.XX.oo.XX +++O",
"#+++ o.XX.oo.XX.oo.XX.oo.XX +++O",
"OOOO o.XX.oo.XX.oo.XX.   XX OOOO",
"###O o.XX.oo.XX.oo.XX.o .XX ###+",
"#@+O o.XX.oo.XX.oo.XX. o XX @@@+",
"#++O o.XX.oo.XX.oo.XX. o XX @+++",
"#+OO o.XX.oo.XX.oo.XX.o .XX ++++",
"OOOO  .XX.oo.XX.oo.XX.oo.XX OOOO",
"O###   XX.oo.XX.oo.XX.oo.XX ##OO",
"#@@@  .XX.oo.XX.oo.XX.oo.XX #@@O",
"#@@@ o.XX.oo.XX.oo.XX.oo.XX @@@O",
"#@@@ o.XX.oo.XX.oo.XX.oo.XX @@+O",
"#@@@ o.XX.oo.XX.oo.XX.oo.XX +@+O",
"#@@+ o.XX.oo.XX.oo.XX.oo.XX +++O",
"O+++ o.XX.oo.XX.oo.XX.oo.XX ++OO",
"OOOOO                      OOOOO"
};
