/* XPM */
static char *result[] = {
/* columns rows colors chars-per-pixel */
"64 64 3 1 ",
"  c #989898",
". c #C0C0C0",
"X c gray90",
/* pixels */
"                                                                ",
"                                                                ",
"XXXXXX  XXXXXXXXXXXXXX  XXXXXXXXXXXXXX  XXXXXXXXXXXXXX  XXXXXXXX",
"XXXXXX  XXXXXXXXXXXXXX  XXXXXXXXXXXXXX  XXXXXXXXXXXXXX  XXXXXXXX",
"....XX  XX..........XX  XX..........XX  XX..........XX  XX......",
"....XX  XX..........XX  XX..........XX  XX..........XX  XX......",
"..XX..  XX........XX..  XX........XX..  XX........XX..  XX......",
"..XX..  XX........XX..  XX........XX..  XX........XX..  XX......",
"......  XX............  XX............  XX............  XX......",
"......  XX............  XX............  XX............  XX......",
"......  ..............  ..............  ..............  ........",
"......  ..............  ..............  ..............  ........",
"......  ..............  ..............  ..............  ........",
"......  ..............  ..............  ..............  ........",
"......  ..............  ..............  ..............  ........",
"......  ..............  ..............  ..............  ........",
"                                                                ",
"                                                                ",
"XXXXXX  XXXXXXXXXXXXXX  XXXXXXXXXXXXXX  XXXXXXXXXXXXXX  XXXXXXXX",
"XXXXXX  XXXXXXXXXXXXXX  XXXXXXXXXXXXXX  XXXXXXXXXXXXXX  XXXXXXXX",
"....XX  XX..........XX  XX..........XX  XX..........XX  XX......",
"....XX  XX..........XX  XX..........XX  XX..........XX  XX......",
"..XX..  XX........XX..  XX........XX..  XX........XX..  XX......",
"..XX..  XX........XX..  XX........XX..  XX........XX..  XX......",
"......  XX............  XX............  XX............  XX......",
"......  XX............  XX............  XX............  XX......",
"......  ..............  ..............  ..............  ........",
"......  ..............  ..............  ..............  ........",
"......  ..............  ..............  ..............  ........",
"......  ..............  ..............  ..............  ........",
"......  ..............  ..............  ..............  ........",
"......  ..............  ..............  ..............  ........",
"                                                                ",
"                                                                ",
"XXXXXX  XXXXXXXXXXXXXX  XXXXXXXXXXXXXX  XXXXXXXXXXXXXX  XXXXXXXX",
"XXXXXX  XXXXXXXXXXXXXX  XXXXXXXXXXXXXX  XXXXXXXXXXXXXX  XXXXXXXX",
"....XX  XX..........XX  XX..........XX  XX..........XX  XX......",
"....XX  XX..........XX  XX..........XX  XX..........XX  XX......",
"..XX..  XX........XX..  XX........XX..  XX........XX..  XX......",
"..XX..  XX........XX..  XX........XX..  XX........XX..  XX......",
"......  XX............  XX............  XX............  XX......",
"......  XX............  XX............  XX............  XX......",
"......  ..............  ..............  ..............  ........",
"......  ..............  ..............  ..............  ........",
"......  ..............  ..............  ..............  ........",
"......  ..............  ..............  ..............  ........",
"......  ..............  ..............  ..............  ........",
"......  ..............  ..............  ..............  ........",
"                                                                ",
"                                                                ",
"XXXXXX  XXXXXXXXXXXXXX  XXXXXXXXXXXXXX  XXXXXXXXXXXXXX  XXXXXXXX",
"XXXXXX  XXXXXXXXXXXXXX  XXXXXXXXXXXXXX  XXXXXXXXXXXXXX  XXXXXXXX",
"....XX  XX..........XX  XX..........XX  XX..........XX  XX......",
"....XX  XX..........XX  XX..........XX  XX..........XX  XX......",
"..XX..  XX........XX..  XX........XX..  XX........XX..  XX......",
"..XX..  XX........XX..  XX........XX..  XX........XX..  XX......",
"......  XX............  XX............  XX............  XX......",
"......  XX............  XX............  XX............  XX......",
"......  ..............  ..............  ..............  ........",
"......  ..............  ..............  ..............  ........",
"......  ..............  ..............  ..............  ........",
"......  ..............  ..............  ..............  ........",
"                                                                ",
"                                                                "
};
