/* XPM */
static char *_9221bf958484f90f4c929e9bfab309bhw5eawF2oPUVKnre[] = {
/* columns rows colors chars-per-pixel */
"32 32 5 1 ",
"  c black",
". c gray60",
"X c #C1C1C1",
"o c #E6E6E6",
"O c white",
/* pixels */
"................................",
"ooo.ooooooo.ooooooo.ooooooo.oooo",
"XXo.oXXXXXo.oXXXXXo.oXXXXXo.oXXX",
"XoX.oXXXXoX.oXXXXoX.oXXXXoX.oXXX",
"XXX.oXXXXXX.oXXXXXX.oXXXXXX.oXXX",
"XXX.XXXXXXX.XXXXXXX.XXXXXXX.XXXX",
"XXX.XXXXXXX.XXXXXXX.XXXXXXX.XXXX",
"XXX.XXXXXXX.XXXXXXX.XXXXXXX.XXXX",
"..........    ..................",
"ooo.ooooo oooO oooo.ooooooo.oooo",
"XXo.oXXX oo  oO XXo.oXXXXXo.oXXX",
"XoX.oXX oo .o O XoX.oXXXXoX.oXXX",
"XXX.oX Xo X.o oO XX.oXXXXXX.oXXX",
"XXX.XX X XX.X oO XX.XXXXXXX.XXXX",
"XXX.XX X XX. oO XXX.XXXXXXX.XXXX",
"XXX.XX Xo   ooO XXX.XXXXXXX.XXXX",
"....... XXooXXoO ...............",
"ooo.oooo  XX  XoO o   ooooo.oooo",
"XXo.oXXXXX  oo XoO OO XXXXo.oXXX",
"XoX.oXXXXoX.oXX XoOoo   XoX.oXXX",
"XXX.oXXXXXX.oXXX XoooOO XXX.oXXX",
"XXX.XXXXXXX.XXXXX Xoooo XXX.XXXX",
"XXX.XXXXXXX.XXXXXX XoX XXXX.XXXX",
"XXX.XXXXXXX.XXXXXXX X XXXXX.XXXX",
".................... ...........",
"ooo.ooooooo.ooooooo.ooooooo.oooo",
"XXo.oXXXXXo.oXXXXXo.oXXXXXo.oXXX",
"XoX.oXXXXoX.oXXXXoX.oXXXXoX.oXXX",
"XXX.oXXXXXX.oXXXXXX.oXXXXXX.oXXX",
"XXX.XXXXXXX.XXXXXXX.XXXXXXX.XXXX",
"XXX.XXXXXXX.XXXXXXX.XXXXXXX.XXXX",
"................................"
};
