/* XPM */
static char *result[] = {
/* columns rows colors chars-per-pixel */
"64 64 5 1 ",
"  c black",
". c gray60",
"X c #C1C1C1",
"o c #E6E6E6",
"O c white",
/* pixels */
"................................................................",
"................................................................",
"oooooo..oooooooooooooo..oooooooooooooo..oooooooooooooo..oooooooo",
"oooooo..oooooooooooooo..oooooooooooooo..oooooooooooooo..oooooooo",
"XXXXoo..ooXXXXXXXXXXoo..ooXXXXXXXXXXoo..ooXXXXXXXXXXoo..ooXXXXXX",
"XXXXoo..ooXXXXXXXXXXoo..ooXXXXXXXXXXoo..ooXXXXXXXXXXoo..ooXXXXXX",
"XXooXX..ooXXXXXXXXooXX..ooXXXXXXXXooXX..ooXXXXXXXXooXX..ooXXXXXX",
"XXooXX..ooXXXXXXXXooXX..ooXXXXXXXXooXX..ooXXXXXXXXooXX..ooXXXXXX",
"XXXXXX..ooXXXXXXXXXXXX..ooXXXXXXXXXXXX..ooXXXXXXXXXXXX..ooXXXXXX",
"XXXXXX..ooXXXXXXXXXXXX..ooXXXXXXXXXXXX..ooXXXXXXXXXXXX..ooXXXXXX",
"XXXXXX..XXXXXXXXXXXXXX..XXXXXXXXXXXXXX..XXXXXXXXXXXXXX..XXXXXXXX",
"XXXXXX..XXXXXXXXXXXXXX..XXXXXXXXXXXXXX..XXXXXXXXXXXXXX..XXXXXXXX",
"XXXXXX..XXXXXXXXXXXXXX..XXXXXXXXXXXXXX..XXXXXXXXXXXXXX..XXXXXXXX",
"XXXXXX..XXXXXXXXXXXXXX..XXXXXXXXXXXXXX..XXXXXXXXXXXXXX..XXXXXXXX",
"XXXXXX..XXXXXXXXXXXXXX..XXXXXXXXXXXXXX..XXXXXXXXXXXXXX..XXXXXXXX",
"XXXXXX..XXXXXXXXXXXXXX..XXXXXXXXXXXXXX..XXXXXXXXXXXXXX..XXXXXXXX",
"....................        ....................................",
"....................        ....................................",
"oooooo..oooooooooo  ooooooOO  oooooooo..oooooooooooooo..oooooooo",
"oooooo..oooooooooo  ooooooOO  oooooooo..oooooooooooooo..oooooooo",
"XXXXoo..ooXXXXXX  oooo    ooOO  XXXXoo..ooXXXXXXXXXXoo..ooXXXXXX",
"XXXXoo..ooXXXXXX  oooo    ooOO  XXXXoo..ooXXXXXXXXXXoo..ooXXXXXX",
"XXooXX..ooXXXX  oooo  ..oo  OO  XXooXX..ooXXXXXXXXooXX..ooXXXXXX",
"XXooXX..ooXXXX  oooo  ..oo  OO  XXooXX..ooXXXXXXXXooXX..ooXXXXXX",
"XXXXXX..ooXX  XXoo  XX..oo  ooOO  XXXX..ooXXXXXXXXXXXX..ooXXXXXX",
"XXXXXX..ooXX  XXoo  XX..oo  ooOO  XXXX..ooXXXXXXXXXXXX..ooXXXXXX",
"XXXXXX..XXXX  XX  XXXX..XX  ooOO  XXXX..XXXXXXXXXXXXXX..XXXXXXXX",
"XXXXXX..XXXX  XX  XXXX..XX  ooOO  XXXX..XXXXXXXXXXXXXX..XXXXXXXX",
"XXXXXX..XXXX  XX  XXXX..  ooOO  XXXXXX..XXXXXXXXXXXXXX..XXXXXXXX",
"XXXXXX..XXXX  XX  XXXX..  ooOO  XXXXXX..XXXXXXXXXXXXXX..XXXXXXXX",
"XXXXXX..XXXX  XXoo      ooooOO  XXXXXX..XXXXXXXXXXXXXX..XXXXXXXX",
"XXXXXX..XXXX  XXoo      ooooOO  XXXXXX..XXXXXXXXXXXXXX..XXXXXXXX",
"..............  XXXXooooXXXXooOO  ..............................",
"..............  XXXXooooXXXXooOO  ..............................",
"oooooo..oooooooo    XXXX    XXooOO  oo      oooooooooo..oooooooo",
"oooooo..oooooooo    XXXX    XXooOO  oo      oooooooooo..oooooooo",
"XXXXoo..ooXXXXXXXXXX    oooo  XXooOO  OOOO  XXXXXXXXoo..ooXXXXXX",
"XXXXoo..ooXXXXXXXXXX    oooo  XXooOO  OOOO  XXXXXXXXoo..ooXXXXXX",
"XXooXX..ooXXXXXXXXooXX..ooXXXX  XXooOOoooo      XXooXX..ooXXXXXX",
"XXooXX..ooXXXXXXXXooXX..ooXXXX  XXooOOoooo      XXooXX..ooXXXXXX",
"XXXXXX..ooXXXXXXXXXXXX..ooXXXXXX  XXooooooOOOO  XXXXXX..ooXXXXXX",
"XXXXXX..ooXXXXXXXXXXXX..ooXXXXXX  XXooooooOOOO  XXXXXX..ooXXXXXX",
"XXXXXX..XXXXXXXXXXXXXX..XXXXXXXXXX  XXoooooooo  XXXXXX..XXXXXXXX",
"XXXXXX..XXXXXXXXXXXXXX..XXXXXXXXXX  XXoooooooo  XXXXXX..XXXXXXXX",
"XXXXXX..XXXXXXXXXXXXXX..XXXXXXXXXXXX  XXooXX  XXXXXXXX..XXXXXXXX",
"XXXXXX..XXXXXXXXXXXXXX..XXXXXXXXXXXX  XXooXX  XXXXXXXX..XXXXXXXX",
"XXXXXX..XXXXXXXXXXXXXX..XXXXXXXXXXXXXX  XX  XXXXXXXXXX..XXXXXXXX",
"XXXXXX..XXXXXXXXXXXXXX..XXXXXXXXXXXXXX  XX  XXXXXXXXXX..XXXXXXXX",
"........................................  ......................",
"........................................  ......................",
"oooooo..oooooooooooooo..oooooooooooooo..oooooooooooooo..oooooooo",
"oooooo..oooooooooooooo..oooooooooooooo..oooooooooooooo..oooooooo",
"XXXXoo..ooXXXXXXXXXXoo..ooXXXXXXXXXXoo..ooXXXXXXXXXXoo..ooXXXXXX",
"XXXXoo..ooXXXXXXXXXXoo..ooXXXXXXXXXXoo..ooXXXXXXXXXXoo..ooXXXXXX",
"XXooXX..ooXXXXXXXXooXX..ooXXXXXXXXooXX..ooXXXXXXXXooXX..ooXXXXXX",
"XXooXX..ooXXXXXXXXooXX..ooXXXXXXXXooXX..ooXXXXXXXXooXX..ooXXXXXX",
"XXXXXX..ooXXXXXXXXXXXX..ooXXXXXXXXXXXX..ooXXXXXXXXXXXX..ooXXXXXX",
"XXXXXX..ooXXXXXXXXXXXX..ooXXXXXXXXXXXX..ooXXXXXXXXXXXX..ooXXXXXX",
"XXXXXX..XXXXXXXXXXXXXX..XXXXXXXXXXXXXX..XXXXXXXXXXXXXX..XXXXXXXX",
"XXXXXX..XXXXXXXXXXXXXX..XXXXXXXXXXXXXX..XXXXXXXXXXXXXX..XXXXXXXX",
"XXXXXX..XXXXXXXXXXXXXX..XXXXXXXXXXXXXX..XXXXXXXXXXXXXX..XXXXXXXX",
"XXXXXX..XXXXXXXXXXXXXX..XXXXXXXXXXXXXX..XXXXXXXXXXXXXX..XXXXXXXX",
"................................................................",
"................................................................"
};
