/* XPM */
static char *result[] = {
/* columns rows colors chars-per-pixel */
"64 64 5 1 ",
"  c black",
". c #989898",
"X c #C0C0C0",
"o c gray90",
"O c white",
/* pixels */
"................................................................",
"................................................................",
"oooooo..oooooooooooooo..oooooooooooooo..oooooooooooooo..oooooooo",
"oooooo..oooooooooooooo..oooooooooooooo..oooooooooooooo..oooooooo",
"XXXXoo..ooXXXXXXXXXXoo..ooXXXXXXXXXXoo..ooXXXXXXXXXXoo..ooXXXXXX",
"XXXXoo..ooXXXXXXXXXXoo..ooXXXXXXXXXXoo..ooXXXXXXXXXXoo..ooXXXXXX",
"XXooXX..ooXXXXXXXXooXX..ooXXXXXXXXooXX..ooXXXXXXXXooXX..ooXXXXXX",
"XXooXX..ooXXXXXXXXooXX..ooXXXXXXXXooXX..ooXXXXXXXXooXX..ooXXXXXX",
"XXXXXX..ooXXXXXXXXXXXX..ooXXXXXXXXXXXX..ooXXXXXXXXXXXX..ooXXXXXX",
"XXXXXX..ooXXXXXXXXXXXX..ooXXXXXXXXXXXX..ooXXXXXXXXXXXX..ooXXXXXX",
"XXXXXX..XXXXXXXXXXXXXX..XXXXXXXXXXXXXX..XXXXXXXXXXXXXX..XXXXXXXX",
"XXXXXX..XXXXXXXXXXXXXX..XXXXXXXXXXXXXX..XXXXXXXXXXXXXX..XXXXXXXX",
"XXXXXX..XXXXXXXXXXXXXX..XXXXXXXXXXXXXX..XXXXXXXXXXXXXX..XXXXXXXX",
"XXXXXX..XXXXXXXXXXXXXX..XXXXXXXXXXXXXX..XXXXXXXXXXXXXX..XXXXXXXX",
"XXXXXX..XXXXXXXXXXXXXX..XXXXXXXXXXXXXX..XXXXXXXXXXXXXX..XXXXXXXX",
"XXXXXX..XXXXXXXXXXXXXX..XXXXXXXXXXXXXX..XXXXXXXXXXXXXX..XXXXXXXX",
"................................................................",
"................................................................",
"oooooo..oooooooooooo        oooooooooo..oooooooooooooo..oooooooo",
"oooooo..oooooooooooo        oooooooooo..oooooooooooooo..oooooooo",
"XXXXoo..ooXXXXXXXX  ooooooOO  XXXXXXoo..ooXXXXXXXXXXoo..ooXXXXXX",
"XXXXoo..ooXXXXXXXX  ooooooOO  XXXXXXoo..ooXXXXXXXXXXoo..ooXXXXXX",
"XXooXX..ooXXXXXX  oooo    ooOO  XXooXX..ooXXXXXXXXooXX..ooXXXXXX",
"XXooXX..ooXXXXXX  oooo    ooOO  XXooXX..ooXXXXXXXXooXX..ooXXXXXX",
"XXXXXX..ooXXXX  oooo  ..oo  OO  XXXXXX..ooXXXXXXXXXXXX..ooXXXXXX",
"XXXXXX..ooXXXX  oooo  ..oo  OO  XXXXXX..ooXXXXXXXXXXXX..ooXXXXXX",
"XXXXXX..XXXX  XXoo  XX..XX  ooOO  XXXX..XXXXXXXXXXXXXX..XXXXXXXX",
"XXXXXX..XXXX  XXoo  XX..XX  ooOO  XXXX..XXXXXXXXXXXXXX..XXXXXXXX",
"XXXXXX..XXXX  XX  XXXX..XX  ooOO  XXXX..XXXXXXXXXXXXXX..XXXXXXXX",
"XXXXXX..XXXX  XX  XXXX..XX  ooOO  XXXX..XXXXXXXXXXXXXX..XXXXXXXX",
"XXXXXX..XXXX  XX  XXXX..  ooOO  XXXXXX..XXXXXXXXXXXXXX..XXXXXXXX",
"XXXXXX..XXXX  XX  XXXX..  ooOO  XXXXXX..XXXXXXXXXXXXXX..XXXXXXXX",
"............  XXoo      ooooOO  ................................",
"............  XXoo      ooooOO  ................................",
"oooooo..oooooo  XXXXooooXXXXooOO  oooo..oooooooooooooo..oooooooo",
"oooooo..oooooo  XXXXooooXXXXooOO  oooo..oooooooooooooo..oooooooo",
"XXXXoo..ooXXXXXX    XXXX    XXooOO  oo      XXXXXXXXoo..ooXXXXXX",
"XXXXoo..ooXXXXXX    XXXX    XXooOO  oo      XXXXXXXXoo..ooXXXXXX",
"XXooXX..ooXXXXXXXXoo    ooXX  XXooOO  OOOO  XXXXXXooXX..ooXXXXXX",
"XXooXX..ooXXXXXXXXoo    ooXX  XXooOO  OOOO  XXXXXXooXX..ooXXXXXX",
"XXXXXX..ooXXXXXXXXXXXX..ooXXXX  XXooOOoooo      XXXXXX..ooXXXXXX",
"XXXXXX..ooXXXXXXXXXXXX..ooXXXX  XXooOOoooo      XXXXXX..ooXXXXXX",
"XXXXXX..XXXXXXXXXXXXXX..XXXXXXXX  XXooooooOOOO  XXXXXX..XXXXXXXX",
"XXXXXX..XXXXXXXXXXXXXX..XXXXXXXX  XXooooooOOOO  XXXXXX..XXXXXXXX",
"XXXXXX..XXXXXXXXXXXXXX..XXXXXXXXXX  XXoooooooo  XXXXXX..XXXXXXXX",
"XXXXXX..XXXXXXXXXXXXXX..XXXXXXXXXX  XXoooooooo  XXXXXX..XXXXXXXX",
"XXXXXX..XXXXXXXXXXXXXX..XXXXXXXXXXXX  XXooXX  XXXXXXXX..XXXXXXXX",
"XXXXXX..XXXXXXXXXXXXXX..XXXXXXXXXXXX  XXooXX  XXXXXXXX..XXXXXXXX",
"......................................  XX  ....................",
"......................................  XX  ....................",
"oooooo..oooooooooooooo..oooooooooooooo..  oooooooooooo..oooooooo",
"oooooo..oooooooooooooo..oooooooooooooo..  oooooooooooo..oooooooo",
"XXXXoo..ooXXXXXXXXXXoo..ooXXXXXXXXXXoo..ooXXXXXXXXXXoo..ooXXXXXX",
"XXXXoo..ooXXXXXXXXXXoo..ooXXXXXXXXXXoo..ooXXXXXXXXXXoo..ooXXXXXX",
"XXooXX..ooXXXXXXXXooXX..ooXXXXXXXXooXX..ooXXXXXXXXooXX..ooXXXXXX",
"XXooXX..ooXXXXXXXXooXX..ooXXXXXXXXooXX..ooXXXXXXXXooXX..ooXXXXXX",
"XXXXXX..ooXXXXXXXXXXXX..ooXXXXXXXXXXXX..ooXXXXXXXXXXXX..ooXXXXXX",
"XXXXXX..ooXXXXXXXXXXXX..ooXXXXXXXXXXXX..ooXXXXXXXXXXXX..ooXXXXXX",
"XXXXXX..XXXXXXXXXXXXXX..XXXXXXXXXXXXXX..XXXXXXXXXXXXXX..XXXXXXXX",
"XXXXXX..XXXXXXXXXXXXXX..XXXXXXXXXXXXXX..XXXXXXXXXXXXXX..XXXXXXXX",
"XXXXXX..XXXXXXXXXXXXXX..XXXXXXXXXXXXXX..XXXXXXXXXXXXXX..XXXXXXXX",
"XXXXXX..XXXXXXXXXXXXXX..XXXXXXXXXXXXXX..XXXXXXXXXXXXXX..XXXXXXXX",
"................................................................",
"................................................................"
};
