/* XPM */
static char *result[] = {
/* columns rows colors chars-per-pixel */
"32 32 5 1 ",
"  c black",
". c #989898",
"X c #C0C0C0",
"o c gray90",
"O c white",
/* pixels */
"................................",
"ooo.ooooooo.ooooooo.ooooooo.oooo",
"XXo.oXXXXXo.oXXXXXo.oXXXXXo.oXXX",
"XoX.oXXXXoX.oXXXXoX.oXXXXoX.oXXX",
"XXX.oXXXXXX.oXXXXXX.oXXXXXX.oXXX",
"XXX.XXXXXXX.XXXXXXX.XXXXXXX.XXXX",
"XXX.XXXXXXX.XXXXXXX.XXXXXXX.XXXX",
"XXX.XXXXXXX.XXXXXXX.XXXXXXX.XXXX",
"................................",
"ooo.oooooo    ooooo.ooooooo.oooo",
"XXo.oXXXX oooO XXXo.oXXXXXo.oXXX",
"XoX.oXXX oo  oO XoX.oXXXXoX.oXXX",
"XXX.oXX oo .o O XXX.oXXXXXX.oXXX",
"XXX.XX Xo X.X oO XX.XXXXXXX.XXXX",
"XXX.XX X XX.X oO XX.XXXXXXX.XXXX",
"XXX.XX X XX. oO XXX.XXXXXXX.XXXX",
"...... Xo   ooO ................",
"ooo.ooo XXooXXoO oo.ooooooo.oooo",
"XXo.oXXX  XX  XoO o   XXXXo.oXXX",
"XoX.oXXXXo  oX XoO OO XXXoX.oXXX",
"XXX.oXXXXXX.oXX XoOoo   XXX.oXXX",
"XXX.XXXXXXX.XXXX XoooOO XXX.XXXX",
"XXX.XXXXXXX.XXXXX Xoooo XXX.XXXX",
"XXX.XXXXXXX.XXXXXX XoX XXXX.XXXX",
"................... X ..........",
"ooo.ooooooo.ooooooo. oooooo.oooo",
"XXo.oXXXXXo.oXXXXXo.oXXXXXo.oXXX",
"XoX.oXXXXoX.oXXXXoX.oXXXXoX.oXXX",
"XXX.oXXXXXX.oXXXXXX.oXXXXXX.oXXX",
"XXX.XXXXXXX.XXXXXXX.XXXXXXX.XXXX",
"XXX.XXXXXXX.XXXXXXX.XXXXXXX.XXXX",
"................................"
};
