/* XPM */
static char *result[] = {
/* columns rows colors chars-per-pixel */
"64 64 5 1 ",
"  c black",
". c gray60",
"X c #C1C1C1",
"o c #E6E6E6",
"O c white",
/* pixels */
"................................................................",
"................................................................",
"oooooo..oooooooooooooo..oooooooooooooo..oooooooooooooo..oooooooo",
"oooooo..oooooooooooooo..oooooooooooooo..oooooooooooooo..oooooooo",
"XXXXoo..ooXXXXXXXXXXoo..ooXXXXXXXXXXoo..ooXXXXXXXXXXoo..ooXXXXXX",
"XXXXoo..ooXXXXXXXXXXoo..ooXXXXXXXXXXoo..ooXXXXXXXXXXoo..ooXXXXXX",
"XXooXX..ooXXXXXXXXooXX..ooXXXXXXXXooXX..ooXXXXXXXXooXX..ooXXXXXX",
"XXooXX..ooXXXXXXXXooXX..ooXXXXXXXXooXX..ooXXXXXXXXooXX..ooXXXXXX",
"XXXXXX..ooXXXXXXXXXXXX..ooXXXXXXXXXXXX..ooXXXXXXXXXXXX..ooXXXXXX",
"XXXXXX..ooXXXXXXXXXXXX..ooXXXXXXXXXXXX..ooXXXXXXXXXXXX..ooXXXXXX",
"XXXXXX..XXXXXXXXXXXXXX..XXXXXXXXXXXXXX..XXXXXXXXXXXXXX..XXXXXXXX",
"XXXXXX..XXXXXXXXXXXXXX..XXXXXXXXXXXXXX..XXXXXXXXXXXXXX..XXXXXXXX",
"XXXXXX..XXXXXXXXXXXXXX..XXXXXXXXXXXXXX..XXXXXXXXXXXXXX..XXXXXXXX",
"XXXXXX..XXXXXXXXXXXXXX..XXXXXXXXXXXXXX..XXXXXXXXXXXXXX..XXXXXXXX",
"XXXXXX..XXXXXXXXXXXX        XXXXXXXXXX..XXXXXXXXXXXXXX..XXXXXXXX",
"XXXXXX..XXXXXXXXXXXX        XXXXXXXXXX..XXXXXXXXXXXXXX..XXXXXXXX",
"..................  ooooooOO  ..................................",
"..................  ooooooOO  ..................................",
"oooooo..oooooooo  oooo    ooOO  oooooo..oooooooooooooo..oooooooo",
"oooooo..oooooooo  oooo    ooOO  oooooo..oooooooooooooo..oooooooo",
"XXXXoo..ooXXXX  oooo  ..oo  OO  XXXXoo..ooXXXXXXXXXXoo..ooXXXXXX",
"XXXXoo..ooXXXX  oooo  ..oo  OO  XXXXoo..ooXXXXXXXXXXoo..ooXXXXXX",
"XXooXX..ooXX  XXoo  XX..oo  ooOO  ooXX..ooXXXXXXXXooXX..ooXXXXXX",
"XXooXX..ooXX  XXoo  XX..oo  ooOO  ooXX..ooXXXXXXXXooXX..ooXXXXXX",
"XXXXXX..ooXX  XX  XXXX..oo  ooOO  XXXX..ooXXXXXXXXXXXX..ooXXXXXX",
"XXXXXX..ooXX  XX  XXXX..oo  ooOO  XXXX..ooXXXXXXXXXXXX..ooXXXXXX",
"XXXXXX..XXXX  XX  XXXX..  ooOO  XXXXXX..XXXXXXXXXXXXXX..XXXXXXXX",
"XXXXXX..XXXX  XX  XXXX..  ooOO  XXXXXX..XXXXXXXXXXXXXX..XXXXXXXX",
"XXXXXX..XXXX  XXoo      ooooOO  XXXXXX..XXXXXXXXXXXXXX..XXXXXXXX",
"XXXXXX..XXXX  XXoo      ooooOO  XXXXXX..XXXXXXXXXXXXXX..XXXXXXXX",
"XXXXXX..XXXXXX  XXXXooooXXXXooOO  XXXX..XXXXXXXXXXXXXX..XXXXXXXX",
"XXXXXX..XXXXXX  XXXXooooXXXXooOO  XXXX..XXXXXXXXXXXXXX..XXXXXXXX",
"................    XXXX    XXooOO  ..      ....................",
"................    XXXX    XXooOO  ..      ....................",
"oooooo..oooooooooooo    oooo  XXooOO  OOOO  oooooooooo..oooooooo",
"oooooo..oooooooooooo    oooo  XXooOO  OOOO  oooooooooo..oooooooo",
"XXXXoo..ooXXXXXXXXXXoo..ooXXXX  XXooOOoooo      XXXXoo..ooXXXXXX",
"XXXXoo..ooXXXXXXXXXXoo..ooXXXX  XXooOOoooo      XXXXoo..ooXXXXXX",
"XXooXX..ooXXXXXXXXooXX..ooXXXXXX  XXooooooOOOO  XXooXX..ooXXXXXX",
"XXooXX..ooXXXXXXXXooXX..ooXXXXXX  XXooooooOOOO  XXooXX..ooXXXXXX",
"XXXXXX..ooXXXXXXXXXXXX..ooXXXXXXXX  XXoooooooo  XXXXXX..ooXXXXXX",
"XXXXXX..ooXXXXXXXXXXXX..ooXXXXXXXX  XXoooooooo  XXXXXX..ooXXXXXX",
"XXXXXX..XXXXXXXXXXXXXX..XXXXXXXXXXXX  XXooXX  XXXXXXXX..XXXXXXXX",
"XXXXXX..XXXXXXXXXXXXXX..XXXXXXXXXXXX  XXooXX  XXXXXXXX..XXXXXXXX",
"XXXXXX..XXXXXXXXXXXXXX..XXXXXXXXXXXXXX  XX  XXXXXXXXXX..XXXXXXXX",
"XXXXXX..XXXXXXXXXXXXXX..XXXXXXXXXXXXXX  XX  XXXXXXXXXX..XXXXXXXX",
"XXXXXX..XXXXXXXXXXXXXX..XXXXXXXXXXXXXX..  XXXXXXXXXXXX..XXXXXXXX",
"XXXXXX..XXXXXXXXXXXXXX..XXXXXXXXXXXXXX..  XXXXXXXXXXXX..XXXXXXXX",
"................................................................",
"................................................................",
"oooooo..oooooooooooooo..oooooooooooooo..oooooooooooooo..oooooooo",
"oooooo..oooooooooooooo..oooooooooooooo..oooooooooooooo..oooooooo",
"XXXXoo..ooXXXXXXXXXXoo..ooXXXXXXXXXXoo..ooXXXXXXXXXXoo..ooXXXXXX",
"XXXXoo..ooXXXXXXXXXXoo..ooXXXXXXXXXXoo..ooXXXXXXXXXXoo..ooXXXXXX",
"XXooXX..ooXXXXXXXXooXX..ooXXXXXXXXooXX..ooXXXXXXXXooXX..ooXXXXXX",
"XXooXX..ooXXXXXXXXooXX..ooXXXXXXXXooXX..ooXXXXXXXXooXX..ooXXXXXX",
"XXXXXX..ooXXXXXXXXXXXX..ooXXXXXXXXXXXX..ooXXXXXXXXXXXX..ooXXXXXX",
"XXXXXX..ooXXXXXXXXXXXX..ooXXXXXXXXXXXX..ooXXXXXXXXXXXX..ooXXXXXX",
"XXXXXX..XXXXXXXXXXXXXX..XXXXXXXXXXXXXX..XXXXXXXXXXXXXX..XXXXXXXX",
"XXXXXX..XXXXXXXXXXXXXX..XXXXXXXXXXXXXX..XXXXXXXXXXXXXX..XXXXXXXX",
"XXXXXX..XXXXXXXXXXXXXX..XXXXXXXXXXXXXX..XXXXXXXXXXXXXX..XXXXXXXX",
"XXXXXX..XXXXXXXXXXXXXX..XXXXXXXXXXXXXX..XXXXXXXXXXXXXX..XXXXXXXX",
"................................................................",
"................................................................"
};
