/* XPM */
static char *_ec33c7395724f07da0092b282cc9d7flcasWCohmZv2vtsZ[] = {
/* columns rows colors chars-per-pixel */
"32 32 5 1 ",
"  c black",
". c gray60",
"X c #C1C1C1",
"o c #E6E6E6",
"O c white",
/* pixels */
"................................",
"ooo.ooooooo.ooooooo.ooooooo.oooo",
"XXo.oXXXXXo.oXXXXXo.oXXXXXo.oXXX",
"XoX.oXXXXoX.oXXXXoX.oXXXXoX.oXXX",
"XXX.oXXXXXX.oXXXXXX.oXXXXXX.oXXX",
"XXX.XXXXXXX.XXXXXXX.XXXXXXX.XXXX",
"XXX.XXXXXXX.XXXXXXX.XXXXXXX.XXXX",
"XXX.XXXXXX    XXXXX.XXXXXXX.XXXX",
"......... oooO .................",
"ooo.oooo oo  oO ooo.ooooooo.oooo",
"XXo.oXX oo .o O XXo.oXXXXXo.oXXX",
"XoX.oX Xo X.o oO oX.oXXXXoX.oXXX",
"XXX.oX X XX.o oO XX.oXXXXXX.oXXX",
"XXX.XX X XX. oO XXX.XXXXXXX.XXXX",
"XXX.XX Xo   ooO XXX.XXXXXXX.XXXX",
"XXX.XXX XXooXXoO XX.XXXXXXX.XXXX",
"........  XX  XoO .   ..........",
"ooo.oooooo  oo XoO OO ooooo.oooo",
"XXo.oXXXXXo.oXX XoOoo   XXo.oXXX",
"XoX.oXXXXoX.oXXX XoooOO XoX.oXXX",
"XXX.oXXXXXX.oXXXX Xoooo XXX.oXXX",
"XXX.XXXXXXX.XXXXXX XoX XXXX.XXXX",
"XXX.XXXXXXX.XXXXXXX X XXXXX.XXXX",
"XXX.XXXXXXX.XXXXXXX. XXXXXX.XXXX",
"................................",
"ooo.ooooooo.ooooooo.ooooooo.oooo",
"XXo.oXXXXXo.oXXXXXo.oXXXXXo.oXXX",
"XoX.oXXXXoX.oXXXXoX.oXXXXoX.oXXX",
"XXX.oXXXXXX.oXXXXXX.oXXXXXX.oXXX",
"XXX.XXXXXXX.XXXXXXX.XXXXXXX.XXXX",
"XXX.XXXXXXX.XXXXXXX.XXXXXXX.XXXX",
"................................"
};
