/* XPM */
static char *result[] = {
/* columns rows colors chars-per-pixel */
"64 64 4 1 ",
"  c #989898",
". c #C0C0C0",
"X c #D0D0D0",
"o c gray90",
/* pixels */
"oooooooooo      oooooooooooooooooooooooooooooooooo    oooooooo..",
"oooooooooo      oooooooooooooooooooooooooooooooooo    oooooooo..",
"ooXXXXXXXXXX  ooooXXXXXXXXXXXXXXXXXXXXXXXXXXXXXXXXXX  ooooXXXX..",
"ooXXXXXXXXXX  ooooXXXXXXXXXXXXXXXXXXXXXXXXXXXXXXXXXX  ooooXXXX..",
"ooXXXXXXXXXX  ooXXXXXXXXXXXXXXXXXXXXXXXXXXXXXXXXXX..  ooXXXXXX..",
"ooXXXXXXXXXX  ooXXXXXXXXXXXXXXXXXXXXXXXXXXXXXXXXXX..  ooXXXXXX..",
"ooXXXXXX....  ooXXXXXXXXXXXXXXXXXXXXXXXXXXXXXXXXXX..  ooXXXXXX..",
"ooXXXXXX....  ooXXXXXXXXXXXXXXXXXXXXXXXXXXXXXXXXXX..  ooXXXXXX..",
"ooXXXX....    ooXXXXXXXXXXXXXXXXXXXXXXXXXXXXXXXX....  ooXXXXXX..",
"ooXXXX....    ooXXXXXXXXXXXXXXXXXXXXXXXXXXXXXXXX....  ooXXXXXX..",
"oo........  ooooXXXXXXXXXXXXXXXXXXXXXXXXXXXX........  XXXXXXXX..",
"oo........  ooooXXXXXXXXXXXXXXXXXXXXXXXXXXXX........  XXXXXXXX..",
"oo........  ooXXXXXXXXXXXXXXXXXXXXXXXXXXXX..........  XXXXXXXX..",
"oo........  ooXXXXXXXXXXXXXXXXXXXXXXXXXXXX..........  XXXXXXXX..",
"oo........  ooXXXXXX..........XXXXXXXX..............  XXXXXXXX..",
"oo........  ooXXXXXX..........XXXXXXXX..............  XXXXXXXX..",
"oo........  ooXXXX..................................  XXXXXX....",
"oo........  ooXXXX..................................  XXXXXX....",
"oo........    ......................................    ........",
"oo........    ......................................    ........",
"                                        ..........              ",
"                                        ..........              ",
"  oooooooooooo    oooooooooooooooooooo                oooooo    ",
"  oooooooooooo    oooooooooooooooooooo                oooooo    ",
"ooooXXXXXXXXXXXX  ooXXXXXXXXXXXXXXXXXXXX  ooooooooooooooooXXXX  ",
"ooooXXXXXXXXXXXX  ooXXXXXXXXXXXXXXXXXXXX  ooooooooooooooooXXXX  ",
"ooXXXXXXXXXXXX..  ooXXXXXXXXXXXXXXXXXX..  ooooXXooooXXXXXXXXXX  ",
"ooXXXXXXXXXXXX..  ooXXXXXXXXXXXXXXXXXX..  ooooXXooooXXXXXXXXXX  ",
"ooXXXXXXXXXX....  ooXXXXXXXXXXXXXXXXXX..  ooXXXXXXXXXXXXXXXX..  ",
"ooXXXXXXXXXX....  ooXXXXXXXXXXXXXXXXXX..  ooXXXXXXXXXXXXXXXX..  ",
"oo..XXXX........  ooXXXXXXXX..XXXX......  ooXXXXXXXXXX........  ",
"oo..XXXX........  ooXXXXXXXX..XXXX......  ooXXXXXXXXXX........  ",
"oo..............  XXXXXXXX..............  XXXXXXXX............  ",
"oo..............  XXXXXXXX..............  XXXXXXXX............  ",
"oo............      ..................      ..................  ",
"oo............      ..................      ..................  ",
"                                                                ",
"                                                                ",
"oooooo    oooooooooooooooooooooooooooooooooo    oooooooooooooo..",
"oooooo    oooooooooooooooooooooooooooooooooo    oooooooooooooo..",
"ooXX..  ooooXXXXXXooooXXXXXXXXXXXXXXXXXXXXXX  ooooXXXXXXXXXXXX..",
"ooXX..  ooooXXXXXXooooXXXXXXXXXXXXXXXXXXXXXX  ooooXXXXXXXXXXXX..",
"oo....  XXXXXXXXXXXXXX......................  ooXX......XX......",
"oo....  XXXXXXXXXXXXXX......................  ooXX......XX......",
"oo..    ..............                        ..................",
"oo..    ..............                        ..................",
"                          oooooooooooooooooo                    ",
"                          oooooooooooooooooo                    ",
"  oooooooooooooooooooo  oooooooooooooooooooooo      oooooooo    ",
"  oooooooooooooooooooo  oooooooooooooooooooooo      oooooooo    ",
"ooXXXXXXXXXXXXXXXXXXXX  ooooooooooooooooXXXXXXXX  ooooXXooXXXX  ",
"ooXXXXXXXXXXXXXXXXXXXX  ooooooooooooooooXXXXXXXX  ooooXXooXXXX  ",
"ooXXXXXXXXXXXXXXXX....  ooooXXXXooooXXXXXXXXXX..  ooXXXXXXXXXX  ",
"ooXXXXXXXXXXXXXXXX....  ooooXXXXooooXXXXXXXXXX..  ooXXXXXXXXXX  ",
"ooXXXXXXXXXXXXXX......  ooXXXXXXXXXXXXXXXXXX....  ooXXXXXXXX..  ",
"ooXXXXXXXXXXXXXX......  ooXXXXXXXXXXXXXXXXXX....  ooXXXXXXXX..  ",
"ooXXXXXX....XX........  ooXXXX..XXXX............  ooXX....XX..  ",
"ooXXXXXX....XX........  ooXXXX..XXXX............  ooXX....XX..  ",
"ooXXXX................  XXXX....................  XX..........  ",
"ooXXXX................  XXXX....................  XX..........  ",
"  ..................      ....................    ..........    ",
"  ..................      ....................    ..........    ",
"                                                                ",
"                                                                "
};
