/* XPM */
static char *result[] = {
/* columns rows colors chars-per-pixel */
"32 32 4 1 ",
"  c #989898",
". c #C0C0C0",
"X c #D0D0D0",
"o c gray90",
/* pixels */
"ooooo   ooooooooooooooooo  oooo.",
"oXXXXX ooXXXXXXXXXXXXXXXXX ooXX.",
"oXXXXX oXXXXXXXXXXXXXXXXX. oXXX.",
"oXXX.. oXXXXXXXXXXXXXXXXX. oXXX.",
"oXX..  oXXXXXXXXXXXXXXXX.. oXXX.",
"o.... ooXXXXXXXXXXXXXX.... XXXX.",
"o.... oXXXXXXXXXXXXXX..... XXXX.",
"o.... oXXX.....XXXX....... XXXX.",
"o.... oXX................. XXX..",
"o....  ...................  ....",
"                    .....       ",
" oooooo  oooooooooo        ooo  ",
"ooXXXXXX oXXXXXXXXXX ooooooooXX ",
"oXXXXXX. oXXXXXXXXX. ooXooXXXXX ",
"oXXXXX.. oXXXXXXXXX. oXXXXXXXX. ",
"o.XX.... oXXXX.XX... oXXXXX.... ",
"o....... XXXX....... XXXX...... ",
"o......   .........   ......... ",
"                                ",
"ooo  ooooooooooooooooo  ooooooo.",
"oX. ooXXXooXXXXXXXXXXX ooXXXXXX.",
"o.. XXXXXXX........... oX...X...",
"o.  .......            .........",
"             ooooooooo          ",
" oooooooooo ooooooooooo   oooo  ",
"oXXXXXXXXXX ooooooooXXXX ooXoXX ",
"oXXXXXXXX.. ooXXooXXXXX. oXXXXX ",
"oXXXXXXX... oXXXXXXXXX.. oXXXX. ",
"oXXX..X.... oXX.XX...... oX..X. ",
"oXX........ XX.......... X..... ",
" .........   ..........  .....  ",
"                                "
};
