/* XPM */
static char *result[] = {
/* columns rows colors chars-per-pixel */
"64 64 12 1 ",
"  c black",
". c #67393C",
"X c #BC1A27",
"o c #B04454",
"O c #F3D36E",
"+ c #7D9BAE",
"@ c #9D8E89",
"# c #989898",
"$ c #C0C0C0",
"% c #FBE8D0",
"& c gray90",
"* c #FFF8F4",
/* pixels */
"################################################################",
"################################################################",
"&&&&&&##&&&&&&&&&&&&&&##&&&&&&&&&&&&&&##&&&&&&&&&&&&&&##&&&&&&&&",
"&&&&&&##&&&&&&&&&&&&&&##&&&&&&&&&&&&&&##&&&&&&&&&&&&&&##&&&&&&&&",
"$$$$&&##&&$$$$$$$$$$&&##&&$$$$$$$$$$&&##&&$$$$$$$$$$&&##&&$$$$$$",
"$$$$&&##&&$$$$$$$$$$&&##&&$$$$$$$$$$&&##&&$$$$$$$$$$&&##&&$$$$$$",
"$$&&$$##&&$$$$$$$$&&$$##&&$$$$$$$$&&$$##&&$$$$$$$$&&$$##&&$$$$$$",
"$$&&$$##&&$$$$$$$$&&$$##&&$$$$$$$$&&$$##&&$$$$$$$$&&$$##&&$$$$$$",
"$$$$$$##&&$$$$$$$$$$$$##&&$$$$$$$$$$$XXXX&$$$$$$$$$$$$##&&$$$$$$",
"$$$$$$##&&$$$$$$$$$$$$##&&$$$$$$$$$$XXXX&&$$$$$$$$$$$$##&&$$$$$$",
"$$$$$$##$$$$$$$$$$$$$$##$$$$$$$$$$$XXXX#$$$$$$$$$$$$$$##$$$$$$$$",
"$$$$$$##$$$$$$$$$$$$$$##$$$$$$$$$$XXXX##$$$$$$$$$$$$$$##$$$$$$$$",
"$$$$$$##$$$$$$$$$$$$$$##$$$$$$$$$XXXX$##$$$$$$$$$$$$$$##$$$$$$$$",
"$$$$$$##$$$$$$$$$$$$$$##$$$$$$$  XXX$$##$$$$$$$$$$$$$$##$$$$$$$$",
"$$$$$$##$$$$$$$$$$$$$$##$$$$$  @@  $$$##$$$$$$$$$$$$$$##$$$$$$$$",
"$$$$$$##$$$$$$$$$$$$$$##$$$  oo@@oo  $##$$$$$$$$$$$$$$##$$$$$$$$",
"########################## oo@o@@o@oo ##########################",
"######################### oooo@@@@oooo #########################",
"&&&&&&##&&&&&&&&&&&&&&##& @o@@@@@@@@o@ #&&&&&&&&&&&&&&##&&&&&&&&",
"&&&&&&##&&&&&&&&&&&&&&## oo@O@@@@@@O@oo &&&&&&&&&&&&&&##&&&&&&&&",
"$$$$&&##&&$$$$$$$$$$&&## o@O%O@@@@OO%@o &&$$$$$$$$$$&&##&&$$$$$$",
"$$$$&&##&&$$$$$$$$$$&&## @OO%OO@@OO%%O@ &&$$$$$$$$$$&&##&&$$$$$$",
"$$&&$$##&&$$$$$$$$&&$$# OOO%%%OOOO%%%OOO &$$$$$$$$&&$$##&&$$$$$$",
"$$&&$$##&&$$$$$$$$&&$$# OO%%++%%%%++%%OO &$$$$$$$$&&$$##&&$$$$$$",
"$$$$$$##&&$$$$$$$$$$$$# O%%%++%%%%++%%%O &$$$$$$$$$$$$##&&$$$$$$",
"$$$$$$##&&$$$$$$$$$$$$## @@%%%%%%%%%%@@ &&$$$$$$$$$$$$##&&$$$$$$",
"$$$$$$##$$$$$$$$$$$$$$## @@%%%%%%%%%%@@ $$$$$$$$$$$$$$##$$$$$$$$",
"$$$$$$##$$$$$$$$$$$$$$##$ @%%%%%%%%%%@ #$$$$$$$$$$$$$$##$$$$$$$$",
"$$$$$$##$$$$$$$$$$$$$$##$              #$$$$$$$$$$$$$$##$$$$$$$$",
"$$$$$$##$$$$$$$$$$$$$$## @ @@@@@@@@@@ @ $$$$$$$$$$$$$$##$$$$$$$$",
"$$$$$$##$$$$$$$$$$$$$$# @@ @@@@@@@@@@ @@ $$$$$$$$$$$$$##$$$$$$$$",
"$$$$$$##$$$$$$$$$$$$$$#    @@      @@    $$$$$$$$$$$$$##$$$$$$$$",
"######################## o @@@@  @@@@ o ########################",
"######################## o @@@@  @@@@ o ########################",
"&&&&&&##&&&&&&&&&&&&&&##    @@ @@ @@    &&&&&&&&&&&&&&##&&&&&&&&",
"&&&&&&##&&&&&&&&&&&&&&# @@ .        . @@ &&&&&&&&&&&&&##&&&&&&&&",
"$$$$&&##&&$$$$$$$$$$&&# @@ @...**...@ @@ &$$$$$$$$$$&&##&&$$$$$$",
"$$$$&&##&&$$$$$$$$$$&&# @@ .@@@@@@@@. @@ &$$$$$$$$$$&&##&&$$$$$$",
"$$&&$$##&&$$$$$$$$&&$$##   %%      %%   &&$$$$$$$$&&$$##&&$$$$$$",
"$$&&$$##&&$$$$$$$$&&$$##&& %%% $$ %%% ##&&$$$$$$$$&&$$##&&$$$$$$",
"$$$$$$##&&$$$$$$$$$$$$##&& %%% $$ %%% ##&&$$$$$$$$$$$$##&&$$$$$$",
"$$$$$$##&&$$$$$$$$$$$$##&&$    $$    $##&&$$$$$$$$$$$$##&&$$$$$$",
"$$$$$$##$$$$$$$$$$$$$$##$$  @@ $$ @@  ##$$$$$$$$$$$$$$##$$$$$$$$",
"$$$$$$##$$$$$$$$$$$$$$##$ @ @@ $$ @@ @ #$$$$$$$$$$$$$$##$$$$$$$$",
"$$$$$$##$$$$$$$$$$$$$$##       $$       $$$$$$$$$$$$$$##$$$$$$$$",
"$$$$$$##$$$$$$$$$$$$$$##$$$$$$$$$$$$$$##$$$$$$$$$$$$$$##$$$$$$$$",
"$$$$$$##$$$$$$$$$$$$$$##$$$$$$$$$$$$$$##$$$$$$$$$$$$$$##$$$$$$$$",
"$$$$$$##$$$$$$$$$$$$$$##$$$$$$$$$$$$$$##$$$$$$$$$$$$$$##$$$$$$$$",
"################################################################",
"################################################################",
"&&&&&&##&&&&&&&&&&&&&&##&&&&&&&&&&&&&&##&&&&&&&&&&&&&&##&&&&&&&&",
"&&&&&&##&&&&&&&&&&&&&&##&&&&&&&&&&&&&&##&&&&&&&&&&&&&&##&&&&&&&&",
"$$$$&&##&&$$$$$$$$$$&&##&&$$$$$$$$$$&&##&&$$$$$$$$$$&&##&&$$$$$$",
"$$$$&&##&&$$$$$$$$$$&&##&&$$$$$$$$$$&&##&&$$$$$$$$$$&&##&&$$$$$$",
"$$&&$$##&&$$$$$$$$&&$$##&&$$$$$$$$&&$$##&&$$$$$$$$&&$$##&&$$$$$$",
"$$&&$$##&&$$$$$$$$&&$$##&&$$$$$$$$&&$$##&&$$$$$$$$&&$$##&&$$$$$$",
"$$$$$$##&&$$$$$$$$$$$$##&&$$$$$$$$$$$$##&&$$$$$$$$$$$$##&&$$$$$$",
"$$$$$$##&&$$$$$$$$$$$$##&&$$$$$$$$$$$$##&&$$$$$$$$$$$$##&&$$$$$$",
"$$$$$$##$$$$$$$$$$$$$$##$$$$$$$$$$$$$$##$$$$$$$$$$$$$$##$$$$$$$$",
"$$$$$$##$$$$$$$$$$$$$$##$$$$$$$$$$$$$$##$$$$$$$$$$$$$$##$$$$$$$$",
"$$$$$$##$$$$$$$$$$$$$$##$$$$$$$$$$$$$$##$$$$$$$$$$$$$$##$$$$$$$$",
"$$$$$$##$$$$$$$$$$$$$$##$$$$$$$$$$$$$$##$$$$$$$$$$$$$$##$$$$$$$$",
"################################################################",
"################################################################"
};
