/* XPM */
static char *result[] = {
/* columns rows colors chars-per-pixel */
"64 64 13 1 ",
"  c black",
". c #74293D",
"X c #747474",
"o c #8A1924",
"O c #9E1623",
"+ c #867D7D",
"@ c #C79B5D",
"# c #989898",
"$ c #B2B7B5",
"% c #E9BFA7",
"& c #81ACC0",
"* c #C0C0C0",
"= c gray90",
/* pixels */
"####################                    ########################",
"####################                    ########################",
"======##==========  OOOOOOOOOOOOOOOOOO  ==============##========",
"======##==========  OOOOOOOOOOOOOOOOOO  ==============##========",
"****==##==******    OOOO                ==**********==##==******",
"****==##==******    OOOO                ==**********==##==******",
"**==**##==******  OOOO  ....  ....  ....  ********==**##==******",
"**==**##==******  OOOO  ....  ....  ....  ********==**##==******",
"******##==******  OO  ..  ..  ....  ..      **********##==******",
"******##==******  OO  ..  ..  ....  ..      **********##==******",
"******##******  OO    ..  ....  ..  ..  ..    ********##********",
"******##******  OO    ..  ....  ..  ..  ..    ********##********",
"******##******  OO    ....  ..            ++  ********##********",
"******##******  OO    ....  ..            ++  ********##********",
"******##******  OO  ..  ..    @@@@@@@@  ++++  ********##********",
"******##******  OO  ..  ..    @@@@@@@@  ++++  ********##********",
"##############  OO  ....  @@@@@@%%%%%%@@  ++  ##################",
"##############  OO  ....  @@@@@@%%%%%%@@  ++  ##################",
"======##======  OO        @@@@%%%%%%%%@@@@    ========##========",
"======##======  OO        @@@@%%%%%%%%@@@@    ========##========",
"****==##==****      ....  @@@@%%%%%%%%%%%%%%  ******==##==******",
"****==##==****      ....  @@@@%%%%%%%%%%%%%%  ******==##==******",
"**==**##==********        @@@@%%%%%%%%&&%%%%  ****==**##==******",
"**==**##==********        @@@@%%%%%%%%&&%%%%  ****==**##==******",
"******##==******      ++++    %%%%%%%%&&%%%%  ********##==******",
"******##==******      ++++    %%%%%%%%&&%%%%  ********##==******",
"******##******  ++++++  ++++++  %%%%%%%%%%%%    ******##********",
"******##******  ++++++  ++++++  %%%%%%%%%%%%    ******##********",
"******##****  ++++++++++  ++++  %%%%%%%%%%%%  ++  ****##********",
"******##****  ++++++++++  ++++  %%%%%%%%%%%%  ++  ****##********",
"******##****      ++++++                                    ****",
"******##****      ++++++                                    ****",
"############  ++++  ++  oooooooooooooooo  XXXXXXXXXXXXXXXX  ####",
"############  ++++  ++  oooooooooooooooo  XXXXXXXXXXXXXXXX  ####",
"======##====      ..    oooooooooooooooo  XX$$$$$$$$$$$$XX  ====",
"======##====      ..    oooooooooooooooo  XX$$$$$$$$$$$$XX  ====",
"****==##==  ..  ....  ++    oooooooo      XX$$$$$$$$$$$$XX  ****",
"****==##==  ..  ....  ++    oooooooo      XX$$$$$$$$$$$$XX  ****",
"**==**##  ..    ....  ++++++        ++++  XX$$$$$$$$$$$$XX  ****",
"**==**##  ..    ....  ++++++        ++++  XX$$$$$$$$$$$$XX  ****",
"******##    ++++    $$  ++++++++++++++++  XX$$$$==$$==$$XX  ****",
"******##    ++++    $$  ++++++++++++++++  XX$$$$==$$==$$XX  ****",
"****      ++++++  $$                        $$==$$==$$==XX  ****",
"****      ++++++  $$                        $$==$$==$$==XX  ****",
"**  $$  ++++++++  ..  $$$$$$$$$$$$$$$$$$$$$$  ==$$$$$$==XX  ****",
"**  $$  ++++++++  ..  $$$$$$$$$$$$$$$$$$$$$$  ==$$$$$$==XX  ****",
"**  $$  ++++++++  ..    XXXXXXXXXXXXXXXXXX$$$$  ==$$==$$XX  ****",
"**  $$  ++++++++  ..    XXXXXXXXXXXXXXXXXX$$$$  ==$$==$$XX  ****",
"##  $$    ++++    ..  $$$$$$$$$$$$$$$$$$$$$$  $$$$==$$$$XX  ####",
"##  $$    ++++    ..  $$$$$$$$$$$$$$$$$$$$$$  $$$$==$$$$XX  ####",
"====    ==    ==  $$                        XX$$$$==$$$$XX  ====",
"====    ==    ==  $$                        XX$$$$==$$$$XX  ====",
"****==##==********  $$      ******          XX$$$$$$$$XX  ******",
"****==##==********  $$      ******          XX$$$$$$$$XX  ******",
"**==**##==********==  ++++  ******  ++++      XX$$$$$$XX  ******",
"**==**##==********==  ++++  ******  ++++      XX$$$$$$XX  ******",
"******##==**********  ++++  ******  ++++  ****  XXXXXX  ==******",
"******##==**********  ++++  ******  ++++  ****  XXXXXX  ==******",
"******##**********  ++++++  ******  ++++++  ****      ##********",
"******##**********  ++++++  ******  ++++++  ****      ##********",
"******##********  ++++++++  ******  ++++++++  ********##********",
"******##********  ++++++++  ******  ++++++++  ********##********",
"################            ######            ##################",
"################            ######            ##################"
};
