/* XPM */
static char *result[] = {
/* columns rows colors chars-per-pixel */
"32 32 3 1 ",
"  c #989898",
". c #C0C0C0",
"X c gray90",
/* pixels */
"                                ",
" XXXXXX XXXXXXX XXXXXXX XXXXXXX ",
" X....X X.....X X.....X X.....X ",
" X...X. X....X. X....X. X....X. ",
" ...... ....... ....... ....... ",
" ..X... ....... ....... ..X.... ",
" ...... ....... ....... ....... ",
"                                ",
" XXXXXX XXXXXXX XXXXXXX XXXXXXX ",
" X....X X.....X X.....X X.....X ",
" X....X X....X. X.....X ..X...X ",
" X...X. X...... X....X. ....... ",
" X..... ....... ....... ....... ",
" ...... ....... ....... ....... ",
" ...... ....... ....... ....... ",
"                                ",
" XXXXXX XXXXXXX XXXXXXX XXXXXXX ",
" X....X X.....X X.....X X.....X ",
" X....X X.....X X.....X X.....X ",
" X...X. X....X. ......X X....X. ",
" X..... X...... .....X. ....... ",
" ...... ....... ....... ....... ",
" ...... ....... ....... ....... ",
"                                ",
" XXXXXX XXXXXXX XXXXXXX XXXXXXX ",
" X....X X.....X X.....X X.....X ",
" X....X X.....X X.....X X.....X ",
" X...X. X.....X X....X. .X....X ",
" X..... X...X.X X...... ......X ",
" ...... ......X ....... ....... ",
" ...... ....... ....... ....... ",
"                                "
};
